$MeshFormat
4.1 0 8
$EndMeshFormat
$PhysicalNames
2
2 2 "Dirichlet"
3 1 "Domain"
$EndPhysicalNames
$Entities
8 12 6 1
1 0 0 0 0 
2 1 0 0 0 
3 1 1 0 0 
4 0 1 0 0 
5 1 1 1 0 
6 1 0 1 0 
7 0 0 1 0 
8 0 1 1 0 
1 -1e-07 -9.999999994736442e-08 -1e-07 1e-07 1.0000001 1e-07 0 2 1 -4 
2 -9.999999994736442e-08 0.9999999000000001 -1e-07 1.0000001 1.0000001 1e-07 0 2 4 -3 
3 0.9999999000000001 -9.999999994736442e-08 -1e-07 1.0000001 1.0000001 1e-07 0 2 3 -2 
4 -9.999999994736442e-08 -1e-07 -1e-07 1.0000001 1e-07 1e-07 0 2 2 -1 
5 0.9999999000000001 0.9999999000000001 -9.999999994736442e-08 1.0000001 1.0000001 1.0000001 0 2 3 -5 
6 0.9999999000000001 -1e-07 -9.999999994736442e-08 1.0000001 1e-07 1.0000001 0 2 2 -6 
7 0.9999999000000001 -9.999999994736442e-08 0.9999999000000001 1.0000001 1.0000001 1.0000001 0 2 5 -6 
8 -1e-07 -1e-07 -9.999999994736442e-08 1e-07 1e-07 1.0000001 0 2 1 -7 
9 -9.999999994736442e-08 -1e-07 0.9999999000000001 1.0000001 1e-07 1.0000001 0 2 6 -7 
10 -1e-07 0.9999999000000001 -9.999999994736442e-08 1e-07 1.0000001 1.0000001 0 2 4 -8 
11 -1e-07 -9.999999994736442e-08 0.9999999000000001 1e-07 1.0000001 1.0000001 0 2 7 -8 
12 -9.999999994736442e-08 0.9999999000000001 0.9999999000000001 1.0000001 1.0000001 1.0000001 0 2 8 -5 
1 -9.999999994736442e-08 -9.999999994736442e-08 -1e-07 1.0000001 1.0000001 1e-07 1 2 4 3 4 1 2 
2 0.9999999000000001 -9.999999994736442e-08 -9.999999994736442e-08 1.0000001 1.0000001 1.0000001 1 2 4 5 7 -6 -3 
3 -9.999999994736442e-08 -1e-07 -9.999999994736442e-08 1.0000001 1e-07 1.0000001 1 2 4 6 9 -8 -4 
4 -1e-07 -9.999999994736442e-08 -9.999999994736442e-08 1e-07 1.0000001 1.0000001 1 2 4 8 11 -10 -1 
5 -9.999999994736442e-08 0.9999999000000001 -9.999999994736442e-08 1.0000001 1.0000001 1.0000001 1 2 4 10 12 -5 -2 
6 -9.999999994736442e-08 -9.999999994736442e-08 0.9999999000000001 1.0000001 1.0000001 1.0000001 1 2 4 7 9 11 12 
1 -9.999999994736442e-08 -9.999999994736442e-08 -9.999999994736442e-08 1.0000001 1.0000001 1.0000001 1 1 6 2 3 4 5 1 -6 
$EndEntities
$Nodes
27 27 1 27
0 1 0 1
1
0 0 0
0 2 0 1
2
1 0 0
0 3 0 1
3
1 1 0
0 4 0 1
4
0 1 0
0 5 0 1
5
1 1 1
0 6 0 1
6
1 0 1
0 7 0 1
7
0 0 1
0 8 0 1
8
0 1 1
1 1 0 1
9
0 0.5 0
1 2 0 1
10
0.5 1 0
1 3 0 1
11
1 0.5 0
1 4 0 1
12
0.5 0 0
1 5 0 1
13
1 1 0.5
1 6 0 1
14
1 0 0.5
1 7 0 1
15
1 0.5 1
1 8 0 1
16
0 0 0.5
1 9 0 1
17
0.5 0 1
1 10 0 1
18
0 1 0.5
1 11 0 1
19
0 0.5 1
1 12 0 1
20
0.5 1 1
2 1 0 1
21
0.5 0.5 0
2 2 0 1
22
1 0.5 0.5
2 3 0 1
23
0.5 0 0.5
2 4 0 1
24
0 0.5 0.5
2 5 0 1
25
0.5 1 0.5
2 6 0 1
26
0.5 0.5 1
3 1 0 1
27
0.5 0.5 0.5
$EndNodes
$Elements
7 32 1 32
2 1 3 4
1 1 9 21 12 
2 12 21 11 2 
3 9 4 10 21 
4 21 10 3 11 
2 2 3 4
5 2 11 22 14 
6 14 22 15 6 
7 11 3 13 22 
8 22 13 5 15 
2 3 3 4
9 1 12 23 16 
10 16 23 17 7 
11 12 2 14 23 
12 23 14 6 17 
2 4 3 4
13 4 9 24 18 
14 18 24 19 8 
15 9 1 16 24 
16 24 16 7 19 
2 5 3 4
17 4 18 25 10 
18 10 25 13 3 
19 18 8 20 25 
20 25 20 5 13 
2 6 3 4
21 8 19 26 20 
22 20 26 15 5 
23 19 7 17 26 
24 26 17 6 15 
3 1 5 8
25 22 11 2 14 27 21 12 23 
26 27 21 12 23 24 9 1 16 
27 15 22 14 6 26 27 23 17 
28 26 27 23 17 19 24 16 7 
29 13 3 11 22 25 10 21 27 
30 25 10 21 27 18 4 9 24 
31 5 13 22 15 20 25 27 26 
32 20 25 27 26 8 18 24 19 
$EndElements
