$MeshFormat
4.1 0 8
$EndMeshFormat
$PhysicalNames
3
1 2 "Dirichlet"
1 3 "Neumann"
2 1 "Domain"
$EndPhysicalNames
$Entities
4 4 1 0
1 0 -0.5 0 0 
2 10 -0.5 0 0 
3 10 0.5 0 0 
4 0 0.5 0 0 
1 -1.000000002804313e-07 -0.5000000999999999 -1e-07 10.0000001 -0.4999999 1e-07 1 3 2 1 -2 
2 9.999999900000001 -0.5000000999999999 -1e-07 10.0000001 0.5000000999999999 1e-07 1 3 2 2 -3 
3 -1.000000002804313e-07 0.4999999 -1e-07 10.0000001 0.5000000999999999 1e-07 1 3 2 3 -4 
4 -1e-07 -0.5000000999999999 -1e-07 1e-07 0.5000000999999999 1e-07 1 2 2 4 -1 
1 -1.000000002804313e-07 -0.5000000999999999 -1e-07 10.0000001 0.5000000999999999 1e-07 1 1 4 4 1 2 3 
$EndEntities
$Nodes
9 22 1 22
0 1 0 1
1
0 -0.5 0
0 2 0 1
2
10 -0.5 0
0 3 0 1
3
10 0.5 0
0 4 0 1
4
0 0.5 0
1 1 0 9
5
6
7
8
9
10
11
12
13
1 -0.5 0
2 -0.5 0
3 -0.5 0
4 -0.5 0
5 -0.5 0
6.000000000000001 -0.5 0
7.000000000000001 -0.5 0
8 -0.5 0
9 -0.5 0
1 2 0 0
1 3 0 9
14
15
16
17
18
19
20
21
22
9 0.5 0
8 0.5 0
7 0.5 0
6 0.5 0
5 0.5 0
3.999999999999999 0.5 0
2.999999999999999 0.5 0
2 0.5 0
1 0.5 0
1 4 0 0
2 1 0 0
$EndNodes
$Elements
5 32 1 32
1 1 1 10
1 1 5 
2 5 6 
3 6 7 
4 7 8 
5 8 9 
6 9 10 
7 10 11 
8 11 12 
9 12 13 
10 13 2 
1 2 1 1
11 2 3 
1 3 1 10
12 3 14 
13 14 15 
14 15 16 
15 16 17 
16 17 18 
17 18 19 
18 19 20 
19 20 21 
20 21 22 
21 22 4 
1 4 1 1
22 4 1 
2 1 3 10
23 1 5 22 4 
24 5 6 21 22 
25 6 7 20 21 
26 7 8 19 20 
27 8 9 18 19 
28 9 10 17 18 
29 10 11 16 17 
30 11 12 15 16 
31 12 13 14 15 
32 13 2 3 14 
$EndElements
