$MeshFormat
4.1 0 8
$EndMeshFormat
$PhysicalNames
3
1 -2 "lixo"
1 2 "hexagon"
2 1 "domain"
$EndPhysicalNames
$Entities
133 354 222 0
1 1 0 0 0 
2 0.5000000000000001 0.8660254037844386 0 0 
3 -0.4999999999999998 0.8660254037844387 0 0 
4 -1 1.224646799147353e-16 0 0 
5 -0.5000000000000004 -0.8660254037844384 0 0 
6 0.4999999999999993 -0.866025403784439 0 0 
7 1 1.732050807568877 0 0 
8 0.5000000000000001 2.598076211353316 0 0 
9 -0.4999999999999998 2.598076211353316 0 0 
10 -1 1.732050807568877 0 0 
13 1 3.464101615137754 0 0 
14 0.5000000000000001 4.330127018922193 0 0 
15 -0.4999999999999998 4.330127018922193 0 0 
16 -1 3.464101615137754 0 0 
19 1 5.196152422706632 0 0 
20 0.5000000000000001 6.06217782649107 0 0 
21 -0.4999999999999998 6.06217782649107 0 0 
22 -1 5.196152422706632 0 0 
25 2.5 -0.8660254037844386 0 0 
26 2 0 0 0 
29 0.9999999999999996 -1.732050807568877 0 0 
30 1.999999999999999 -1.732050807568878 0 0 
31 2.5 0.8660254037844386 0 0 
32 2 1.732050807568877 0 0 
37 2.5 2.598076211353316 0 0 
38 2 3.464101615137754 0 0 
43 2.5 4.330127018922194 0 0 
44 2 5.196152422706632 0 0 
49 2.5 6.06217782649107 0 0 
50 2 6.928203230275509 0 0 
51 1 6.928203230275509 0 0 
55 4 -1.732050807568877 0 0 
56 3.5 -0.8660254037844386 0 0 
59 2.5 -2.598076211353316 0 0 
60 3.499999999999999 -2.598076211353316 0 0 
61 4 0 0 0 
62 3.5 0.8660254037844386 0 0 
67 4 1.732050807568877 0 0 
68 3.5 2.598076211353316 0 0 
73 4 3.464101615137755 0 0 
74 3.5 4.330127018922194 0 0 
79 4 5.196152422706632 0 0 
80 3.5 6.06217782649107 0 0 
85 4 6.928203230275509 0 0 
86 3.5 7.794228634059947 0 0 
87 2.5 7.794228634059947 0 0 
91 5.5 -2.598076211353316 0 0 
92 5 -1.732050807568877 0 0 
95 4 -3.464101615137754 0 0 
96 4.999999999999999 -3.464101615137755 0 0 
97 5.5 -0.8660254037844388 0 0 
98 5 -2.220446049250313e-16 0 0 
103 5.5 0.8660254037844384 0 0 
104 5 1.732050807568877 0 0 
109 5.5 2.598076211353316 0 0 
110 5 3.464101615137754 0 0 
115 5.5 4.330127018922193 0 0 
116 5 5.196152422706631 0 0 
121 5.5 6.06217782649107 0 0 
122 5 6.928203230275508 0 0 
127 5.5 7.794228634059948 0 0 
128 5 8.660254037844387 0 0 
129 4 8.660254037844387 0 0 
133 7 -1.732050807568877 0 0 
134 6.5 -0.8660254037844388 0 0 
138 6.499999999999999 -2.598076211353316 0 0 
139 7 -2.220446049250313e-16 0 0 
140 6.5 0.8660254037844384 0 0 
145 7 1.732050807568877 0 0 
146 6.5 2.598076211353316 0 0 
151 7 3.464101615137754 0 0 
152 6.5 4.330127018922193 0 0 
157 7 5.196152422706631 0 0 
158 6.5 6.06217782649107 0 0 
163 7 6.928203230275508 0 0 
164 6.5 7.794228634059946 0 0 
169 8.5 -0.8660254037844388 0 0 
170 8 -2.220446049250313e-16 0 0 
174 7.999999999999999 -1.732050807568878 0 0 
175 8.5 0.8660254037844384 0 0 
176 8 1.732050807568877 0 0 
181 8.5 2.598076211353316 0 0 
182 8 3.464101615137754 0 0 
187 8.5 4.330127018922193 0 0 
188 8 5.196152422706631 0 0 
193 8.5 6.06217782649107 0 0 
194 8 6.928203230275508 0 0 
199 10 -2.220446049250313e-16 0 0 
200 9.5 0.8660254037844384 0 0 
204 9.5 -0.8660254037844393 0 0 
205 10 1.732050807568877 0 0 
206 9.5 2.598076211353316 0 0 
211 10 3.464101615137754 0 0 
212 9.5 4.330127018922193 0 0 
217 10 5.196152422706632 0 0 
218 9.5 6.06217782649107 0 0 
223 -1.480297366166875e-16 0 0 0 
224 -1.480297366166875e-16 1.732050807568877 0 0 
225 -1.480297366166875e-16 3.464101615137754 0 0 
226 -1.480297366166875e-16 5.196152422706632 0 0 
227 1.5 -0.8660254037844387 0 0 
228 1.5 0.8660254037844384 0 0 
229 1.5 2.598076211353316 0 0 
230 1.5 4.330127018922194 0 0 
231 1.5 6.06217782649107 0 0 
232 3 -1.732050807568877 0 0 
233 3 0 0 0 
234 3 1.732050807568877 0 0 
235 3 3.464101615137755 0 0 
236 3 5.196152422706632 0 0 
237 3 6.92820323027551 0 0 
238 4.5 -2.598076211353316 0 0 
239 4.5 -0.8660254037844388 0 0 
240 4.5 0.8660254037844384 0 0 
241 4.5 2.598076211353316 0 0 
242 4.5 4.330127018922192 0 0 
243 4.5 6.06217782649107 0 0 
244 4.5 7.794228634059948 0 0 
245 6 -1.732050807568877 0 0 
246 6 -1.850371707708594e-16 0 0 
247 6 1.732050807568877 0 0 
248 6 3.464101615137754 0 0 
249 6 5.196152422706631 0 0 
250 6 6.928203230275507 0 0 
251 7.5 -0.8660254037844388 0 0 
252 7.5 0.8660254037844384 0 0 
253 7.5 2.598076211353316 0 0 
254 7.5 4.330127018922192 0 0 
255 7.5 6.06217782649107 0 0 
256 9 -1.850371707708594e-16 0 0 
257 9 1.732050807568877 0 0 
258 9 3.464101615137754 0 0 
259 9 5.196152422706632 0 0 
1 0.5000000000000001 0 0 1 0.8660254037844386 0 2 2 -2 2 1 -2 
2 -0.4999999999999999 0.8660254037844386 0 0.5000000000000001 0.8660254037844387 0 2 2 -2 2 2 -3 
3 -1 1.110223024625157e-16 0 -0.4999999999999998 0.8660254037844387 0 1 2 2 3 -4 
4 -1 -0.8660254037844384 0 -0.5000000000000004 1.110223024625157e-16 0 1 2 2 4 -5 
5 -0.5000000000000004 -0.866025403784439 0 0.4999999999999993 -0.8660254037844384 0 1 2 2 5 -6 
6 0.4999999999999993 -0.866025403784439 0 1 0 0 2 2 -2 2 6 -1 
7 0.5000000000000001 1.732050807568877 0 1 2.598076211353316 0 2 2 -2 2 7 -8 
8 -0.4999999999999999 2.598076211353316 0 0.5000000000000001 2.598076211353316 0 2 2 -2 2 8 -9 
9 -1 1.732050807568877 0 -0.4999999999999998 2.598076211353316 0 1 2 2 9 -10 
10 -1 0.8660254037844387 0 -0.4999999999999998 1.732050807568877 0 1 2 2 10 -3 
12 0.5000000000000001 0.8660254037844386 0 1 1.732050807568877 0 2 2 -2 2 2 -7 
13 0.5000000000000001 3.464101615137754 0 1 4.330127018922193 0 2 2 -2 2 13 -14 
14 -0.4999999999999999 4.330127018922193 0 0.5000000000000001 4.330127018922193 0 2 2 -2 2 14 -15 
15 -1 3.464101615137754 0 -0.4999999999999998 4.330127018922193 0 1 2 2 15 -16 
16 -1 2.598076211353316 0 -0.4999999999999998 3.464101615137754 0 1 2 2 16 -9 
18 0.5000000000000001 2.598076211353316 0 1 3.464101615137754 0 2 2 -2 2 8 -13 
19 0.5000000000000001 5.196152422706632 0 1 6.06217782649107 0 2 2 -2 2 19 -20 
20 -0.4999999999999999 6.06217782649107 0 0.5000000000000001 6.06217782649107 0 1 2 2 20 -21 
21 -1 5.196152422706632 0 -0.4999999999999998 6.06217782649107 0 1 2 2 21 -22 
22 -1 4.330127018922193 0 -0.4999999999999998 5.196152422706632 0 1 2 2 22 -15 
24 0.5000000000000001 4.330127018922193 0 1 5.196152422706632 0 2 2 -2 2 14 -19 
25 2 -0.8660254037844386 0 2.5 0 0 2 2 -2 2 25 -26 
26 1 0 0 2 0 0 2 2 -2 2 26 -1 
28 0.4999999999999993 -1.732050807568877 0 0.9999999999999996 -0.866025403784439 0 1 2 2 6 -29 
29 0.9999999999999996 -1.732050807568878 0 1.999999999999999 -1.732050807568877 0 1 2 2 29 -30 
30 1.999999999999999 -1.732050807568878 0 2.5 -0.8660254037844386 0 2 2 -2 2 30 -25 
31 2 0.8660254037844386 0 2.5 1.732050807568877 0 2 2 -2 2 31 -32 
32 1 1.732050807568877 0 2 1.732050807568877 0 2 2 -2 2 32 -7 
36 2 0 0 2.5 0.8660254037844386 0 2 2 -2 2 26 -31 
37 2 2.598076211353316 0 2.5 3.464101615137754 0 2 2 -2 2 37 -38 
38 1 3.464101615137754 0 2 3.464101615137754 0 2 2 -2 2 38 -13 
42 2 1.732050807568877 0 2.5 2.598076211353316 0 2 2 -2 2 32 -37 
43 2 4.330127018922194 0 2.5 5.196152422706632 0 2 2 -2 2 43 -44 
44 1 5.196152422706632 0 2 5.196152422706632 0 2 2 -2 2 44 -19 
48 2 3.464101615137754 0 2.5 4.330127018922194 0 2 2 -2 2 38 -43 
49 2 6.06217782649107 0 2.5 6.928203230275509 0 2 2 -2 2 49 -50 
50 1 6.928203230275509 0 2 6.928203230275509 0 1 2 2 50 -51 
51 0.5000000000000001 6.06217782649107 0 1 6.928203230275509 0 1 2 2 51 -20 
54 2 5.196152422706632 0 2.5 6.06217782649107 0 2 2 -2 2 44 -49 
55 3.5 -1.732050807568877 0 4 -0.8660254037844386 0 2 2 -2 2 55 -56 
56 2.5 -0.8660254037844386 0 3.5 -0.8660254037844386 0 2 2 -2 2 56 -25 
58 1.999999999999999 -2.598076211353316 0 2.5 -1.732050807568878 0 1 2 2 30 -59 
59 2.5 -2.598076211353316 0 3.499999999999999 -2.598076211353316 0 1 2 2 59 -60 
60 3.499999999999999 -2.598076211353316 0 4 -1.732050807568877 0 2 2 -2 2 60 -55 
61 3.5 0 0 4 0.8660254037844386 0 2 2 -2 2 61 -62 
62 2.5 0.8660254037844386 0 3.5 0.8660254037844386 0 2 2 -2 2 62 -31 
66 3.5 -0.8660254037844386 0 4 0 0 2 2 -2 2 56 -61 
67 3.5 1.732050807568877 0 4 2.598076211353316 0 2 2 -2 2 67 -68 
68 2.5 2.598076211353316 0 3.5 2.598076211353316 0 2 2 -2 2 68 -37 
72 3.5 0.8660254037844386 0 4 1.732050807568877 0 2 2 -2 2 62 -67 
73 3.5 3.464101615137755 0 4 4.330127018922194 0 2 2 -2 2 73 -74 
74 2.5 4.330127018922194 0 3.5 4.330127018922194 0 2 2 -2 2 74 -43 
78 3.5 2.598076211353316 0 4 3.464101615137755 0 2 2 -2 2 68 -73 
79 3.5 5.196152422706632 0 4 6.06217782649107 0 2 2 -2 2 79 -80 
80 2.5 6.06217782649107 0 3.5 6.06217782649107 0 2 2 -2 2 80 -49 
84 3.5 4.330127018922194 0 4 5.196152422706632 0 2 2 -2 2 74 -79 
85 3.5 6.928203230275509 0 4 7.794228634059947 0 2 2 -2 2 85 -86 
86 2.5 7.794228634059947 0 3.5 7.794228634059947 0 1 2 2 86 -87 
87 2 6.928203230275509 0 2.5 7.794228634059947 0 1 2 2 87 -50 
90 3.5 6.06217782649107 0 4 6.928203230275509 0 2 2 -2 2 80 -85 
91 5 -2.598076211353316 0 5.5 -1.732050807568877 0 2 2 -2 2 91 -92 
92 4 -1.732050807568877 0 5 -1.732050807568877 0 2 2 -2 2 92 -55 
94 3.499999999999999 -3.464101615137754 0 4 -2.598076211353316 0 1 2 2 60 -95 
95 4 -3.464101615137755 0 4.999999999999999 -3.464101615137754 0 1 2 2 95 -96 
96 4.999999999999999 -3.464101615137755 0 5.5 -2.598076211353316 0 1 2 2 96 -91 
97 5 -0.8660254037844388 0 5.5 -2.220446049250313e-16 0 2 2 -2 2 97 -98 
98 4 -2.220446049250313e-16 0 5 0 0 2 2 -2 2 98 -61 
102 5 -1.732050807568877 0 5.5 -0.8660254037844388 0 2 2 -2 2 92 -97 
103 5 0.8660254037844384 0 5.5 1.732050807568877 0 2 2 -2 2 103 -104 
104 4 1.732050807568877 0 5 1.732050807568877 0 2 2 -2 2 104 -67 
108 5 -2.220446049250313e-16 0 5.5 0.8660254037844384 0 2 2 -2 2 98 -103 
109 5 2.598076211353316 0 5.5 3.464101615137754 0 2 2 -2 2 109 -110 
110 4 3.464101615137754 0 5 3.464101615137755 0 2 2 -2 2 110 -73 
114 5 1.732050807568877 0 5.5 2.598076211353316 0 2 2 -2 2 104 -109 
115 5 4.330127018922193 0 5.5 5.196152422706631 0 2 2 -2 2 115 -116 
116 4 5.196152422706631 0 5 5.196152422706632 0 2 2 -2 2 116 -79 
120 5 3.464101615137754 0 5.5 4.330127018922193 0 2 2 -2 2 110 -115 
121 5 6.06217782649107 0 5.5 6.928203230275508 0 2 2 -2 2 121 -122 
122 4 6.928203230275508 0 5 6.928203230275509 0 2 2 -2 2 122 -85 
126 5 5.196152422706631 0 5.5 6.06217782649107 0 2 2 -2 2 116 -121 
127 5 7.794228634059948 0 5.5 8.660254037844387 0 1 2 2 127 -128 
128 4 8.660254037844387 0 5 8.660254037844387 0 1 2 2 128 -129 
129 3.5 7.794228634059947 0 4 8.660254037844387 0 1 2 2 129 -86 
132 5 6.928203230275508 0 5.5 7.794228634059948 0 2 2 -2 2 122 -127 
133 6.5 -1.732050807568877 0 7 -0.8660254037844388 0 2 2 -2 2 133 -134 
134 5.5 -0.8660254037844388 0 6.5 -0.8660254037844388 0 2 2 -2 2 134 -97 
137 5.5 -2.598076211353316 0 6.499999999999999 -2.598076211353316 0 1 2 2 91 -138 
138 6.499999999999999 -2.598076211353316 0 7 -1.732050807568877 0 1 2 2 138 -133 
139 6.5 -2.220446049250313e-16 0 7 0.8660254037844384 0 2 2 -2 2 139 -140 
140 5.5 0.8660254037844384 0 6.5 0.8660254037844384 0 2 2 -2 2 140 -103 
144 6.5 -0.8660254037844388 0 7 -2.220446049250313e-16 0 2 2 -2 2 134 -139 
145 6.5 1.732050807568877 0 7 2.598076211353316 0 2 2 -2 2 145 -146 
146 5.5 2.598076211353316 0 6.5 2.598076211353316 0 2 2 -2 2 146 -109 
150 6.5 0.8660254037844384 0 7 1.732050807568877 0 2 2 -2 2 140 -145 
151 6.5 3.464101615137754 0 7 4.330127018922193 0 2 2 -2 2 151 -152 
152 5.5 4.330127018922193 0 6.5 4.330127018922193 0 2 2 -2 2 152 -115 
156 6.5 2.598076211353316 0 7 3.464101615137754 0 2 2 -2 2 146 -151 
157 6.5 5.196152422706631 0 7 6.06217782649107 0 2 2 -2 2 157 -158 
158 5.5 6.06217782649107 0 6.5 6.06217782649107 0 2 2 -2 2 158 -121 
162 6.5 4.330127018922193 0 7 5.196152422706631 0 2 2 -2 2 152 -157 
163 6.5 6.928203230275508 0 7 7.794228634059946 0 1 2 2 163 -164 
164 5.5 7.794228634059946 0 6.5 7.794228634059948 0 1 2 2 164 -127 
168 6.5 6.06217782649107 0 7 6.928203230275508 0 2 2 -2 2 158 -163 
169 8 -0.8660254037844388 0 8.5 -2.220446049250313e-16 0 2 2 -2 2 169 -170 
170 7 -2.220446049250313e-16 0 8 -2.220446049250313e-16 0 2 2 -2 2 170 -139 
173 7 -1.732050807568878 0 7.999999999999999 -1.732050807568877 0 1 2 2 133 -174 
174 7.999999999999999 -1.732050807568878 0 8.5 -0.8660254037844388 0 1 2 2 174 -169 
175 8 0.8660254037844384 0 8.5 1.732050807568877 0 2 2 -2 2 175 -176 
176 7 1.732050807568877 0 8 1.732050807568877 0 2 2 -2 2 176 -145 
180 8 -2.220446049250313e-16 0 8.5 0.8660254037844384 0 2 2 -2 2 170 -175 
181 8 2.598076211353316 0 8.5 3.464101615137754 0 2 2 -2 2 181 -182 
182 7 3.464101615137754 0 8 3.464101615137754 0 2 2 -2 2 182 -151 
186 8 1.732050807568877 0 8.5 2.598076211353316 0 2 2 -2 2 176 -181 
187 8 4.330127018922193 0 8.5 5.196152422706631 0 2 2 -2 2 187 -188 
188 7 5.196152422706631 0 8 5.196152422706631 0 2 2 -2 2 188 -157 
192 8 3.464101615137754 0 8.5 4.330127018922193 0 2 2 -2 2 182 -187 
193 8 6.06217782649107 0 8.5 6.928203230275508 0 1 2 2 193 -194 
194 7 6.928203230275508 0 8 6.928203230275508 0 1 2 2 194 -163 
198 8 5.196152422706631 0 8.5 6.06217782649107 0 2 2 -2 2 188 -193 
199 9.5 -2.220446049250313e-16 0 10 0.8660254037844384 0 1 2 2 199 -200 
200 8.5 0.8660254037844384 0 9.5 0.8660254037844384 0 2 2 -2 2 200 -175 
203 8.5 -0.8660254037844393 0 9.5 -0.8660254037844388 0 1 2 2 169 -204 
204 9.5 -0.8660254037844393 0 10 -2.220446049250313e-16 0 1 2 2 204 -199 
205 9.5 1.732050807568877 0 10 2.598076211353316 0 1 2 2 205 -206 
206 8.5 2.598076211353316 0 9.5 2.598076211353316 0 2 2 -2 2 206 -181 
210 9.5 0.8660254037844384 0 10 1.732050807568877 0 1 2 2 200 -205 
211 9.5 3.464101615137754 0 10 4.330127018922193 0 1 2 2 211 -212 
212 8.5 4.330127018922193 0 9.5 4.330127018922193 0 2 2 -2 2 212 -187 
216 9.5 2.598076211353316 0 10 3.464101615137754 0 1 2 2 206 -211 
217 9.5 5.196152422706632 0 10 6.06217782649107 0 1 2 2 217 -218 
218 8.5 6.06217782649107 0 9.5 6.06217782649107 0 1 2 2 218 -193 
222 9.5 4.330127018922193 0 10 5.196152422706632 0 1 2 2 212 -217 
223 -1.665334536937735e-16 0 0 1 0 0 0 2 223 -1 
225 -1.110223024625157e-16 0 0 0.5000000000000001 0.8660254037844386 0 0 2 2 -223 
228 -0.4999999999999998 0 0 -1.665334536937735e-16 0.8660254037844387 0 0 2 3 -223 
231 -1 0 0 -1.110223024625157e-16 1.224646799147353e-16 0 0 2 4 -223 
234 -0.5000000000000004 -0.8660254037844384 0 -1.110223024625157e-16 0 0 0 2 5 -223 
237 -1.665334536937735e-16 -0.866025403784439 0 0.4999999999999993 0 0 0 2 6 -223 
241 -1.665334536937735e-16 1.732050807568877 0 1 1.732050807568877 0 0 2 224 -7 
243 -1.110223024625157e-16 1.732050807568877 0 0.5000000000000001 2.598076211353316 0 0 2 8 -224 
246 -0.4999999999999998 1.732050807568877 0 -1.665334536937735e-16 2.598076211353316 0 0 2 9 -224 
249 -1 1.732050807568877 0 -1.110223024625157e-16 1.732050807568877 0 0 2 10 -224 
252 -0.4999999999999998 0.8660254037844387 0 -1.665334536937735e-16 1.732050807568877 0 0 2 3 -224 
255 -1.110223024625157e-16 0.8660254037844386 0 0.5000000000000001 1.732050807568877 0 0 2 2 -224 
259 -1.665334536937735e-16 3.464101615137754 0 1 3.464101615137754 0 0 2 225 -13 
261 -1.110223024625157e-16 3.464101615137754 0 0.5000000000000001 4.330127018922193 0 0 2 14 -225 
264 -0.4999999999999998 3.464101615137754 0 -1.665334536937735e-16 4.330127018922193 0 0 2 15 -225 
267 -1 3.464101615137754 0 -1.110223024625157e-16 3.464101615137754 0 0 2 16 -225 
270 -0.4999999999999998 2.598076211353316 0 -1.665334536937735e-16 3.464101615137754 0 0 2 9 -225 
273 -1.110223024625157e-16 2.598076211353316 0 0.5000000000000001 3.464101615137754 0 0 2 8 -225 
277 -1.665334536937735e-16 5.196152422706632 0 1 5.196152422706632 0 0 2 226 -19 
279 -1.110223024625157e-16 5.196152422706632 0 0.5000000000000001 6.06217782649107 0 0 2 20 -226 
282 -0.4999999999999998 5.196152422706632 0 -1.665334536937735e-16 6.06217782649107 0 0 2 21 -226 
285 -1 5.196152422706632 0 -1.110223024625157e-16 5.196152422706632 0 0 2 22 -226 
288 -0.4999999999999998 4.330127018922193 0 -1.665334536937735e-16 5.196152422706632 0 0 2 15 -226 
291 -1.110223024625157e-16 4.330127018922193 0 0.5000000000000001 5.196152422706632 0 0 2 14 -226 
295 1.5 -0.8660254037844387 0 2.5 -0.8660254037844386 0 0 2 227 -25 
297 1.5 -0.8660254037844387 0 2 0 0 0 2 26 -227 
300 1 -0.8660254037844387 0 1.5 0 0 0 2 1 -227 
303 0.4999999999999993 -0.866025403784439 0 1.5 -0.8660254037844387 0 0 2 6 -227 
306 0.9999999999999996 -1.732050807568877 0 1.5 -0.8660254037844387 0 0 2 29 -227 
309 1.5 -1.732050807568878 0 1.999999999999999 -0.8660254037844387 0 0 2 30 -227 
313 1.5 0.8660254037844384 0 2.5 0.8660254037844386 0 0 2 228 -31 
315 1.5 0.8660254037844384 0 2 1.732050807568877 0 0 2 32 -228 
318 1 0.8660254037844384 0 1.5 1.732050807568877 0 0 2 7 -228 
321 0.5000000000000001 0.8660254037844384 0 1.5 0.8660254037844386 0 0 2 2 -228 
324 1 0 0 1.5 0.8660254037844384 0 0 2 1 -228 
327 1.5 0 0 2 0.8660254037844384 0 0 2 26 -228 
331 1.5 2.598076211353316 0 2.5 2.598076211353316 0 0 2 229 -37 
333 1.5 2.598076211353316 0 2 3.464101615137754 0 0 2 38 -229 
336 1 2.598076211353316 0 1.5 3.464101615137754 0 0 2 13 -229 
339 0.5000000000000001 2.598076211353316 0 1.5 2.598076211353316 0 0 2 8 -229 
342 1 1.732050807568877 0 1.5 2.598076211353316 0 0 2 7 -229 
345 1.5 1.732050807568877 0 2 2.598076211353316 0 0 2 32 -229 
349 1.5 4.330127018922194 0 2.5 4.330127018922194 0 0 2 230 -43 
351 1.5 4.330127018922194 0 2 5.196152422706632 0 0 2 44 -230 
354 1 4.330127018922194 0 1.5 5.196152422706632 0 0 2 19 -230 
357 0.5000000000000001 4.330127018922193 0 1.5 4.330127018922194 0 0 2 14 -230 
360 1 3.464101615137754 0 1.5 4.330127018922194 0 0 2 13 -230 
363 1.5 3.464101615137754 0 2 4.330127018922194 0 0 2 38 -230 
367 1.5 6.06217782649107 0 2.5 6.06217782649107 0 0 2 231 -49 
369 1.5 6.06217782649107 0 2 6.928203230275509 0 0 2 50 -231 
372 1 6.06217782649107 0 1.5 6.928203230275509 0 0 2 51 -231 
375 0.5000000000000001 6.06217782649107 0 1.5 6.06217782649107 0 0 2 20 -231 
378 1 5.196152422706632 0 1.5 6.06217782649107 0 0 2 19 -231 
381 1.5 5.196152422706632 0 2 6.06217782649107 0 0 2 44 -231 
385 3 -1.732050807568877 0 4 -1.732050807568877 0 0 2 232 -55 
387 3 -1.732050807568877 0 3.5 -0.8660254037844386 0 0 2 56 -232 
390 2.5 -1.732050807568877 0 3 -0.8660254037844386 0 0 2 25 -232 
393 1.999999999999999 -1.732050807568878 0 3 -1.732050807568877 0 0 2 30 -232 
396 2.5 -2.598076211353316 0 3 -1.732050807568877 0 0 2 59 -232 
399 3 -2.598076211353316 0 3.499999999999999 -1.732050807568877 0 0 2 60 -232 
403 3 0 0 4 0 0 0 2 233 -61 
405 3 0 0 3.5 0.8660254037844386 0 0 2 62 -233 
408 2.5 0 0 3 0.8660254037844386 0 0 2 31 -233 
411 2 0 0 3 0 0 0 2 26 -233 
414 2.5 -0.8660254037844386 0 3 0 0 0 2 25 -233 
417 3 -0.8660254037844386 0 3.5 0 0 0 2 56 -233 
421 3 1.732050807568877 0 4 1.732050807568877 0 0 2 234 -67 
423 3 1.732050807568877 0 3.5 2.598076211353316 0 0 2 68 -234 
426 2.5 1.732050807568877 0 3 2.598076211353316 0 0 2 37 -234 
429 2 1.732050807568877 0 3 1.732050807568877 0 0 2 32 -234 
432 2.5 0.8660254037844386 0 3 1.732050807568877 0 0 2 31 -234 
435 3 0.8660254037844386 0 3.5 1.732050807568877 0 0 2 62 -234 
439 3 3.464101615137755 0 4 3.464101615137755 0 0 2 235 -73 
441 3 3.464101615137755 0 3.5 4.330127018922194 0 0 2 74 -235 
444 2.5 3.464101615137755 0 3 4.330127018922194 0 0 2 43 -235 
447 2 3.464101615137754 0 3 3.464101615137755 0 0 2 38 -235 
450 2.5 2.598076211353316 0 3 3.464101615137755 0 0 2 37 -235 
453 3 2.598076211353316 0 3.5 3.464101615137755 0 0 2 68 -235 
457 3 5.196152422706632 0 4 5.196152422706632 0 0 2 236 -79 
459 3 5.196152422706632 0 3.5 6.06217782649107 0 0 2 80 -236 
462 2.5 5.196152422706632 0 3 6.06217782649107 0 0 2 49 -236 
465 2 5.196152422706632 0 3 5.196152422706632 0 0 2 44 -236 
468 2.5 4.330127018922194 0 3 5.196152422706632 0 0 2 43 -236 
471 3 4.330127018922194 0 3.5 5.196152422706632 0 0 2 74 -236 
475 3 6.928203230275509 0 4 6.92820323027551 0 0 2 237 -85 
477 3 6.92820323027551 0 3.5 7.794228634059947 0 0 2 86 -237 
480 2.5 6.92820323027551 0 3 7.794228634059947 0 0 2 87 -237 
483 2 6.928203230275509 0 3 6.92820323027551 0 0 2 50 -237 
486 2.5 6.06217782649107 0 3 6.92820323027551 0 0 2 49 -237 
489 3 6.06217782649107 0 3.5 6.92820323027551 0 0 2 80 -237 
493 4.5 -2.598076211353316 0 5.5 -2.598076211353316 0 0 2 238 -91 
495 4.5 -2.598076211353316 0 5 -1.732050807568877 0 0 2 92 -238 
498 4 -2.598076211353316 0 4.5 -1.732050807568877 0 0 2 55 -238 
501 3.499999999999999 -2.598076211353316 0 4.5 -2.598076211353316 0 0 2 60 -238 
504 4 -3.464101615137754 0 4.5 -2.598076211353316 0 0 2 95 -238 
507 4.5 -3.464101615137755 0 4.999999999999999 -2.598076211353316 0 0 2 96 -238 
511 4.5 -0.8660254037844388 0 5.5 -0.8660254037844388 0 0 2 239 -97 
513 4.5 -0.8660254037844388 0 5 -2.220446049250313e-16 0 0 2 98 -239 
516 4 -0.8660254037844388 0 4.5 0 0 0 2 61 -239 
519 3.5 -0.8660254037844388 0 4.5 -0.8660254037844386 0 0 2 56 -239 
522 4 -1.732050807568877 0 4.5 -0.8660254037844388 0 0 2 55 -239 
525 4.5 -1.732050807568877 0 5 -0.8660254037844388 0 0 2 92 -239 
529 4.5 0.8660254037844384 0 5.5 0.8660254037844384 0 0 2 240 -103 
531 4.5 0.8660254037844384 0 5 1.732050807568877 0 0 2 104 -240 
534 4 0.8660254037844384 0 4.5 1.732050807568877 0 0 2 67 -240 
537 3.5 0.8660254037844384 0 4.5 0.8660254037844386 0 0 2 62 -240 
540 4 0 0 4.5 0.8660254037844384 0 0 2 61 -240 
543 4.5 -2.220446049250313e-16 0 5 0.8660254037844384 0 0 2 98 -240 
547 4.5 2.598076211353316 0 5.5 2.598076211353316 0 0 2 241 -109 
549 4.5 2.598076211353316 0 5 3.464101615137754 0 0 2 110 -241 
552 4 2.598076211353316 0 4.5 3.464101615137755 0 0 2 73 -241 
555 3.5 2.598076211353316 0 4.5 2.598076211353316 0 0 2 68 -241 
558 4 1.732050807568877 0 4.5 2.598076211353316 0 0 2 67 -241 
561 4.5 1.732050807568877 0 5 2.598076211353316 0 0 2 104 -241 
565 4.5 4.330127018922192 0 5.5 4.330127018922193 0 0 2 242 -115 
567 4.5 4.330127018922192 0 5 5.196152422706631 0 0 2 116 -242 
570 4 4.330127018922192 0 4.5 5.196152422706632 0 0 2 79 -242 
573 3.5 4.330127018922192 0 4.5 4.330127018922194 0 0 2 74 -242 
576 4 3.464101615137755 0 4.5 4.330127018922192 0 0 2 73 -242 
579 4.5 3.464101615137754 0 5 4.330127018922192 0 0 2 110 -242 
583 4.5 6.06217782649107 0 5.5 6.06217782649107 0 0 2 243 -121 
585 4.5 6.06217782649107 0 5 6.928203230275508 0 0 2 122 -243 
588 4 6.06217782649107 0 4.5 6.928203230275509 0 0 2 85 -243 
591 3.5 6.06217782649107 0 4.5 6.06217782649107 0 0 2 80 -243 
594 4 5.196152422706632 0 4.5 6.06217782649107 0 0 2 79 -243 
597 4.5 5.196152422706631 0 5 6.06217782649107 0 0 2 116 -243 
601 4.5 7.794228634059948 0 5.5 7.794228634059948 0 0 2 244 -127 
603 4.5 7.794228634059948 0 5 8.660254037844387 0 0 2 128 -244 
606 4 7.794228634059948 0 4.5 8.660254037844387 0 0 2 129 -244 
609 3.5 7.794228634059947 0 4.5 7.794228634059948 0 0 2 86 -244 
612 4 6.928203230275509 0 4.5 7.794228634059948 0 0 2 85 -244 
615 4.5 6.928203230275508 0 5 7.794228634059948 0 0 2 122 -244 
619 6 -1.732050807568877 0 7 -1.732050807568877 0 0 2 245 -133 
621 6 -1.732050807568877 0 6.5 -0.8660254037844388 0 0 2 134 -245 
624 5.5 -1.732050807568877 0 6 -0.8660254037844388 0 0 2 97 -245 
627 5 -1.732050807568877 0 6 -1.732050807568877 0 0 2 92 -245 
630 5.5 -2.598076211353316 0 6 -1.732050807568877 0 0 2 91 -245 
633 6 -2.598076211353316 0 6.499999999999999 -1.732050807568877 0 0 2 138 -245 
637 6 -2.220446049250313e-16 0 7 -1.850371707708594e-16 0 0 2 246 -139 
639 6 -2.220446049250313e-16 0 6.5 0.8660254037844384 0 0 2 140 -246 
642 5.5 -2.220446049250313e-16 0 6 0.8660254037844384 0 0 2 103 -246 
645 5 -2.220446049250313e-16 0 6 -1.850371707708594e-16 0 0 2 98 -246 
648 5.5 -0.8660254037844388 0 6 -2.220446049250313e-16 0 0 2 97 -246 
651 6 -0.8660254037844388 0 6.5 -2.220446049250313e-16 0 0 2 134 -246 
655 6 1.732050807568877 0 7 1.732050807568877 0 0 2 247 -145 
657 6 1.732050807568877 0 6.5 2.598076211353316 0 0 2 146 -247 
660 5.5 1.732050807568877 0 6 2.598076211353316 0 0 2 109 -247 
663 5 1.732050807568877 0 6 1.732050807568877 0 0 2 104 -247 
666 5.5 0.8660254037844384 0 6 1.732050807568877 0 0 2 103 -247 
669 6 0.8660254037844384 0 6.5 1.732050807568877 0 0 2 140 -247 
673 6 3.464101615137754 0 7 3.464101615137754 0 0 2 248 -151 
675 6 3.464101615137754 0 6.5 4.330127018922193 0 0 2 152 -248 
678 5.5 3.464101615137754 0 6 4.330127018922193 0 0 2 115 -248 
681 5 3.464101615137754 0 6 3.464101615137754 0 0 2 110 -248 
684 5.5 2.598076211353316 0 6 3.464101615137754 0 0 2 109 -248 
687 6 2.598076211353316 0 6.5 3.464101615137754 0 0 2 146 -248 
691 6 5.196152422706631 0 7 5.196152422706631 0 0 2 249 -157 
693 6 5.196152422706631 0 6.5 6.06217782649107 0 0 2 158 -249 
696 5.5 5.196152422706631 0 6 6.06217782649107 0 0 2 121 -249 
699 5 5.196152422706631 0 6 5.196152422706631 0 0 2 116 -249 
702 5.5 4.330127018922193 0 6 5.196152422706631 0 0 2 115 -249 
705 6 4.330127018922193 0 6.5 5.196152422706631 0 0 2 152 -249 
709 6 6.928203230275507 0 7 6.928203230275508 0 0 2 250 -163 
711 6 6.928203230275507 0 6.5 7.794228634059946 0 0 2 164 -250 
714 5.5 6.928203230275507 0 6 7.794228634059948 0 0 2 127 -250 
717 5 6.928203230275507 0 6 6.928203230275508 0 0 2 122 -250 
720 5.5 6.06217782649107 0 6 6.928203230275507 0 0 2 121 -250 
723 6 6.06217782649107 0 6.5 6.928203230275507 0 0 2 158 -250 
727 7.5 -0.8660254037844388 0 8.5 -0.8660254037844388 0 0 2 251 -169 
729 7.5 -0.8660254037844388 0 8 -2.220446049250313e-16 0 0 2 170 -251 
732 7 -0.8660254037844388 0 7.5 -2.220446049250313e-16 0 0 2 139 -251 
735 6.5 -0.8660254037844388 0 7.5 -0.8660254037844388 0 0 2 134 -251 
738 7 -1.732050807568877 0 7.5 -0.8660254037844388 0 0 2 133 -251 
741 7.5 -1.732050807568878 0 7.999999999999999 -0.8660254037844388 0 0 2 174 -251 
745 7.5 0.8660254037844384 0 8.5 0.8660254037844384 0 0 2 252 -175 
747 7.5 0.8660254037844384 0 8 1.732050807568877 0 0 2 176 -252 
750 7 0.8660254037844384 0 7.5 1.732050807568877 0 0 2 145 -252 
753 6.5 0.8660254037844384 0 7.5 0.8660254037844384 0 0 2 140 -252 
756 7 -2.220446049250313e-16 0 7.5 0.8660254037844384 0 0 2 139 -252 
759 7.5 -2.220446049250313e-16 0 8 0.8660254037844384 0 0 2 170 -252 
763 7.5 2.598076211353316 0 8.5 2.598076211353316 0 0 2 253 -181 
765 7.5 2.598076211353316 0 8 3.464101615137754 0 0 2 182 -253 
768 7 2.598076211353316 0 7.5 3.464101615137754 0 0 2 151 -253 
771 6.5 2.598076211353316 0 7.5 2.598076211353316 0 0 2 146 -253 
774 7 1.732050807568877 0 7.5 2.598076211353316 0 0 2 145 -253 
777 7.5 1.732050807568877 0 8 2.598076211353316 0 0 2 176 -253 
781 7.5 4.330127018922192 0 8.5 4.330127018922193 0 0 2 254 -187 
783 7.5 4.330127018922192 0 8 5.196152422706631 0 0 2 188 -254 
786 7 4.330127018922192 0 7.5 5.196152422706631 0 0 2 157 -254 
789 6.5 4.330127018922192 0 7.5 4.330127018922193 0 0 2 152 -254 
792 7 3.464101615137754 0 7.5 4.330127018922192 0 0 2 151 -254 
795 7.5 3.464101615137754 0 8 4.330127018922192 0 0 2 182 -254 
799 7.5 6.06217782649107 0 8.5 6.06217782649107 0 0 2 255 -193 
801 7.5 6.06217782649107 0 8 6.928203230275508 0 0 2 194 -255 
804 7 6.06217782649107 0 7.5 6.928203230275508 0 0 2 163 -255 
807 6.5 6.06217782649107 0 7.5 6.06217782649107 0 0 2 158 -255 
810 7 5.196152422706631 0 7.5 6.06217782649107 0 0 2 157 -255 
813 7.5 5.196152422706631 0 8 6.06217782649107 0 0 2 188 -255 
817 9 -2.220446049250313e-16 0 10 -1.850371707708594e-16 0 0 2 256 -199 
819 9 -2.220446049250313e-16 0 9.5 0.8660254037844384 0 0 2 200 -256 
822 8.5 -2.220446049250313e-16 0 9 0.8660254037844384 0 0 2 175 -256 
825 8 -2.220446049250313e-16 0 9 -1.850371707708594e-16 0 0 2 170 -256 
828 8.5 -0.8660254037844388 0 9 -2.220446049250313e-16 0 0 2 169 -256 
831 9 -0.8660254037844393 0 9.5 -2.220446049250313e-16 0 0 2 204 -256 
835 9 1.732050807568877 0 10 1.732050807568877 0 0 2 257 -205 
837 9 1.732050807568877 0 9.5 2.598076211353316 0 0 2 206 -257 
840 8.5 1.732050807568877 0 9 2.598076211353316 0 0 2 181 -257 
843 8 1.732050807568877 0 9 1.732050807568877 0 0 2 176 -257 
846 8.5 0.8660254037844384 0 9 1.732050807568877 0 0 2 175 -257 
849 9 0.8660254037844384 0 9.5 1.732050807568877 0 0 2 200 -257 
853 9 3.464101615137754 0 10 3.464101615137754 0 0 2 258 -211 
855 9 3.464101615137754 0 9.5 4.330127018922193 0 0 2 212 -258 
858 8.5 3.464101615137754 0 9 4.330127018922193 0 0 2 187 -258 
861 8 3.464101615137754 0 9 3.464101615137754 0 0 2 182 -258 
864 8.5 2.598076211353316 0 9 3.464101615137754 0 0 2 181 -258 
867 9 2.598076211353316 0 9.5 3.464101615137754 0 0 2 206 -258 
871 9 5.196152422706632 0 10 5.196152422706632 0 0 2 259 -217 
873 9 5.196152422706632 0 9.5 6.06217782649107 0 0 2 218 -259 
876 8.5 5.196152422706632 0 9 6.06217782649107 0 0 2 193 -259 
879 8 5.196152422706631 0 9 5.196152422706632 0 0 2 188 -259 
882 8.5 4.330127018922193 0 9 5.196152422706632 0 0 2 187 -259 
885 9 4.330127018922193 0 9.5 5.196152422706632 0 0 2 212 -259 
38 -1.665334536937735e-16 0 0 1 0.8660254037844386 0 1 1 3 223 1 225 
39 -0.4999999999999999 0 0 0.5000000000000001 0.8660254037844387 0 1 1 3 -225 2 228 
40 -1 0 0 -1.110223024625157e-16 0.8660254037844387 0 1 1 3 -228 3 231 
41 -1 -0.8660254037844384 0 -1.110223024625157e-16 1.110223024625157e-16 0 1 1 3 -231 4 234 
42 -0.5000000000000004 -0.866025403784439 0 0.4999999999999993 0 0 1 1 3 -234 5 237 
43 -1.110223024625157e-16 -0.866025403784439 0 1 0 0 1 1 3 -237 6 -223 
44 -1.665334536937735e-16 1.732050807568877 0 1 2.598076211353316 0 1 1 3 241 7 243 
45 -0.4999999999999999 1.732050807568877 0 0.5000000000000001 2.598076211353316 0 1 1 3 -243 8 246 
46 -1 1.732050807568877 0 -1.110223024625157e-16 2.598076211353316 0 1 1 3 -246 9 249 
47 -1 0.8660254037844387 0 -1.110223024625157e-16 1.732050807568877 0 1 1 3 -249 10 252 
48 -0.4999999999999999 0.8660254037844386 0 0.5000000000000001 1.732050807568877 0 1 1 3 -252 -2 255 
49 -1.665334536937735e-16 0.8660254037844386 0 1 1.732050807568877 0 1 1 3 -255 12 -241 
50 -1.665334536937735e-16 3.464101615137754 0 1 4.330127018922193 0 1 1 3 259 13 261 
51 -0.4999999999999999 3.464101615137754 0 0.5000000000000001 4.330127018922193 0 1 1 3 -261 14 264 
52 -1 3.464101615137754 0 -1.110223024625157e-16 4.330127018922193 0 1 1 3 -264 15 267 
53 -1 2.598076211353316 0 -1.110223024625157e-16 3.464101615137754 0 1 1 3 -267 16 270 
54 -0.4999999999999999 2.598076211353316 0 0.5000000000000001 3.464101615137754 0 1 1 3 -270 -8 273 
55 -1.665334536937735e-16 2.598076211353316 0 1 3.464101615137754 0 1 1 3 -273 18 -259 
56 -1.665334536937735e-16 5.196152422706632 0 1 6.06217782649107 0 1 1 3 277 19 279 
57 -0.4999999999999999 5.196152422706632 0 0.5000000000000001 6.06217782649107 0 1 1 3 -279 20 282 
58 -1 5.196152422706632 0 -1.110223024625157e-16 6.06217782649107 0 1 1 3 -282 21 285 
59 -1 4.330127018922193 0 -1.110223024625157e-16 5.196152422706632 0 1 1 3 -285 22 288 
60 -0.4999999999999999 4.330127018922193 0 0.5000000000000001 5.196152422706632 0 1 1 3 -288 -14 291 
61 -1.665334536937735e-16 4.330127018922193 0 1 5.196152422706632 0 1 1 3 -291 24 -277 
62 1.5 -0.8660254037844387 0 2.5 0 0 1 1 3 295 25 297 
63 1 -0.8660254037844387 0 2 0 0 1 1 3 -297 26 300 
64 0.4999999999999993 -0.866025403784439 0 1.5 0 0 1 1 3 -300 -6 303 
65 0.4999999999999993 -1.732050807568877 0 1.5 -0.8660254037844387 0 1 1 3 -303 28 306 
66 0.9999999999999996 -1.732050807568878 0 1.999999999999999 -0.8660254037844387 0 1 1 3 -306 29 309 
67 1.5 -1.732050807568878 0 2.5 -0.8660254037844386 0 1 1 3 -309 30 -295 
68 1.5 0.8660254037844384 0 2.5 1.732050807568877 0 1 1 3 313 31 315 
69 1 0.8660254037844384 0 2 1.732050807568877 0 1 1 3 -315 32 318 
70 0.5000000000000001 0.8660254037844384 0 1.5 1.732050807568877 0 1 1 3 -318 -12 321 
71 0.5000000000000001 0 0 1.5 0.8660254037844386 0 1 1 3 -321 -1 324 
72 1 0 0 2 0.8660254037844384 0 1 1 3 -324 -26 327 
73 1.5 0 0 2.5 0.8660254037844386 0 1 1 3 -327 36 -313 
74 1.5 2.598076211353316 0 2.5 3.464101615137754 0 1 1 3 331 37 333 
75 1 2.598076211353316 0 2 3.464101615137754 0 1 1 3 -333 38 336 
76 0.5000000000000001 2.598076211353316 0 1.5 3.464101615137754 0 1 1 3 -336 -18 339 
77 0.5000000000000001 1.732050807568877 0 1.5 2.598076211353316 0 1 1 3 -339 -7 342 
78 1 1.732050807568877 0 2 2.598076211353316 0 1 1 3 -342 -32 345 
79 1.5 1.732050807568877 0 2.5 2.598076211353316 0 1 1 3 -345 42 -331 
80 1.5 4.330127018922194 0 2.5 5.196152422706632 0 1 1 3 349 43 351 
81 1 4.330127018922194 0 2 5.196152422706632 0 1 1 3 -351 44 354 
82 0.5000000000000001 4.330127018922193 0 1.5 5.196152422706632 0 1 1 3 -354 -24 357 
83 0.5000000000000001 3.464101615137754 0 1.5 4.330127018922194 0 1 1 3 -357 -13 360 
84 1 3.464101615137754 0 2 4.330127018922194 0 1 1 3 -360 -38 363 
85 1.5 3.464101615137754 0 2.5 4.330127018922194 0 1 1 3 -363 48 -349 
86 1.5 6.06217782649107 0 2.5 6.928203230275509 0 1 1 3 367 49 369 
87 1 6.06217782649107 0 2 6.928203230275509 0 1 1 3 -369 50 372 
88 0.5000000000000001 6.06217782649107 0 1.5 6.928203230275509 0 1 1 3 -372 51 375 
89 0.5000000000000001 5.196152422706632 0 1.5 6.06217782649107 0 1 1 3 -375 -19 378 
90 1 5.196152422706632 0 2 6.06217782649107 0 1 1 3 -378 -44 381 
91 1.5 5.196152422706632 0 2.5 6.06217782649107 0 1 1 3 -381 54 -367 
92 3 -1.732050807568877 0 4 -0.8660254037844386 0 1 1 3 385 55 387 
93 2.5 -1.732050807568877 0 3.5 -0.8660254037844386 0 1 1 3 -387 56 390 
94 1.999999999999999 -1.732050807568878 0 3 -0.8660254037844386 0 1 1 3 -390 -30 393 
95 1.999999999999999 -2.598076211353316 0 3 -1.732050807568877 0 1 1 3 -393 58 396 
96 2.5 -2.598076211353316 0 3.499999999999999 -1.732050807568877 0 1 1 3 -396 59 399 
97 3 -2.598076211353316 0 4 -1.732050807568877 0 1 1 3 -399 60 -385 
98 3 0 0 4 0.8660254037844386 0 1 1 3 403 61 405 
99 2.5 0 0 3.5 0.8660254037844386 0 1 1 3 -405 62 408 
100 2 0 0 3 0.8660254037844386 0 1 1 3 -408 -36 411 
101 2 -0.8660254037844386 0 3 0 0 1 1 3 -411 -25 414 
102 2.5 -0.8660254037844386 0 3.5 0 0 1 1 3 -414 -56 417 
103 3 -0.8660254037844386 0 4 0 0 1 1 3 -417 66 -403 
104 3 1.732050807568877 0 4 2.598076211353316 0 1 1 3 421 67 423 
105 2.5 1.732050807568877 0 3.5 2.598076211353316 0 1 1 3 -423 68 426 
106 2 1.732050807568877 0 3 2.598076211353316 0 1 1 3 -426 -42 429 
107 2 0.8660254037844386 0 3 1.732050807568877 0 1 1 3 -429 -31 432 
108 2.5 0.8660254037844386 0 3.5 1.732050807568877 0 1 1 3 -432 -62 435 
109 3 0.8660254037844386 0 4 1.732050807568877 0 1 1 3 -435 72 -421 
110 3 3.464101615137755 0 4 4.330127018922194 0 1 1 3 439 73 441 
111 2.5 3.464101615137755 0 3.5 4.330127018922194 0 1 1 3 -441 74 444 
112 2 3.464101615137754 0 3 4.330127018922194 0 1 1 3 -444 -48 447 
113 2 2.598076211353316 0 3 3.464101615137755 0 1 1 3 -447 -37 450 
114 2.5 2.598076211353316 0 3.5 3.464101615137755 0 1 1 3 -450 -68 453 
115 3 2.598076211353316 0 4 3.464101615137755 0 1 1 3 -453 78 -439 
116 3 5.196152422706632 0 4 6.06217782649107 0 1 1 3 457 79 459 
117 2.5 5.196152422706632 0 3.5 6.06217782649107 0 1 1 3 -459 80 462 
118 2 5.196152422706632 0 3 6.06217782649107 0 1 1 3 -462 -54 465 
119 2 4.330127018922194 0 3 5.196152422706632 0 1 1 3 -465 -43 468 
120 2.5 4.330127018922194 0 3.5 5.196152422706632 0 1 1 3 -468 -74 471 
121 3 4.330127018922194 0 4 5.196152422706632 0 1 1 3 -471 84 -457 
122 3 6.928203230275509 0 4 7.794228634059947 0 1 1 3 475 85 477 
123 2.5 6.92820323027551 0 3.5 7.794228634059947 0 1 1 3 -477 86 480 
124 2 6.928203230275509 0 3 7.794228634059947 0 1 1 3 -480 87 483 
125 2 6.06217782649107 0 3 6.92820323027551 0 1 1 3 -483 -49 486 
126 2.5 6.06217782649107 0 3.5 6.92820323027551 0 1 1 3 -486 -80 489 
127 3 6.06217782649107 0 4 6.92820323027551 0 1 1 3 -489 90 -475 
128 4.5 -2.598076211353316 0 5.5 -1.732050807568877 0 1 1 3 493 91 495 
129 4 -2.598076211353316 0 5 -1.732050807568877 0 1 1 3 -495 92 498 
130 3.499999999999999 -2.598076211353316 0 4.5 -1.732050807568877 0 1 1 3 -498 -60 501 
131 3.499999999999999 -3.464101615137754 0 4.5 -2.598076211353316 0 1 1 3 -501 94 504 
132 4 -3.464101615137755 0 4.999999999999999 -2.598076211353316 0 1 1 3 -504 95 507 
133 4.5 -3.464101615137755 0 5.5 -2.598076211353316 0 1 1 3 -507 96 -493 
134 4.5 -0.8660254037844388 0 5.5 -2.220446049250313e-16 0 1 1 3 511 97 513 
135 4 -0.8660254037844388 0 5 0 0 1 1 3 -513 98 516 
136 3.5 -0.8660254037844388 0 4.5 0 0 1 1 3 -516 -66 519 
137 3.5 -1.732050807568877 0 4.5 -0.8660254037844386 0 1 1 3 -519 -55 522 
138 4 -1.732050807568877 0 5 -0.8660254037844388 0 1 1 3 -522 -92 525 
139 4.5 -1.732050807568877 0 5.5 -0.8660254037844388 0 1 1 3 -525 102 -511 
140 4.5 0.8660254037844384 0 5.5 1.732050807568877 0 1 1 3 529 103 531 
141 4 0.8660254037844384 0 5 1.732050807568877 0 1 1 3 -531 104 534 
142 3.5 0.8660254037844384 0 4.5 1.732050807568877 0 1 1 3 -534 -72 537 
143 3.5 0 0 4.5 0.8660254037844386 0 1 1 3 -537 -61 540 
144 4 -2.220446049250313e-16 0 5 0.8660254037844384 0 1 1 3 -540 -98 543 
145 4.5 -2.220446049250313e-16 0 5.5 0.8660254037844384 0 1 1 3 -543 108 -529 
146 4.5 2.598076211353316 0 5.5 3.464101615137754 0 1 1 3 547 109 549 
147 4 2.598076211353316 0 5 3.464101615137755 0 1 1 3 -549 110 552 
148 3.5 2.598076211353316 0 4.5 3.464101615137755 0 1 1 3 -552 -78 555 
149 3.5 1.732050807568877 0 4.5 2.598076211353316 0 1 1 3 -555 -67 558 
150 4 1.732050807568877 0 5 2.598076211353316 0 1 1 3 -558 -104 561 
151 4.5 1.732050807568877 0 5.5 2.598076211353316 0 1 1 3 -561 114 -547 
152 4.5 4.330127018922192 0 5.5 5.196152422706631 0 1 1 3 565 115 567 
153 4 4.330127018922192 0 5 5.196152422706632 0 1 1 3 -567 116 570 
154 3.5 4.330127018922192 0 4.5 5.196152422706632 0 1 1 3 -570 -84 573 
155 3.5 3.464101615137755 0 4.5 4.330127018922194 0 1 1 3 -573 -73 576 
156 4 3.464101615137754 0 5 4.330127018922192 0 1 1 3 -576 -110 579 
157 4.5 3.464101615137754 0 5.5 4.330127018922193 0 1 1 3 -579 120 -565 
158 4.5 6.06217782649107 0 5.5 6.928203230275508 0 1 1 3 583 121 585 
159 4 6.06217782649107 0 5 6.928203230275509 0 1 1 3 -585 122 588 
160 3.5 6.06217782649107 0 4.5 6.928203230275509 0 1 1 3 -588 -90 591 
161 3.5 5.196152422706632 0 4.5 6.06217782649107 0 1 1 3 -591 -79 594 
162 4 5.196152422706631 0 5 6.06217782649107 0 1 1 3 -594 -116 597 
163 4.5 5.196152422706631 0 5.5 6.06217782649107 0 1 1 3 -597 126 -583 
164 4.5 7.794228634059948 0 5.5 8.660254037844387 0 1 1 3 601 127 603 
165 4 7.794228634059948 0 5 8.660254037844387 0 1 1 3 -603 128 606 
166 3.5 7.794228634059947 0 4.5 8.660254037844387 0 1 1 3 -606 129 609 
167 3.5 6.928203230275509 0 4.5 7.794228634059948 0 1 1 3 -609 -85 612 
168 4 6.928203230275508 0 5 7.794228634059948 0 1 1 3 -612 -122 615 
169 4.5 6.928203230275508 0 5.5 7.794228634059948 0 1 1 3 -615 132 -601 
170 6 -1.732050807568877 0 7 -0.8660254037844388 0 1 1 3 619 133 621 
171 5.5 -1.732050807568877 0 6.5 -0.8660254037844388 0 1 1 3 -621 134 624 
172 5 -1.732050807568877 0 6 -0.8660254037844388 0 1 1 3 -624 -102 627 
173 5 -2.598076211353316 0 6 -1.732050807568877 0 1 1 3 -627 -91 630 
174 5.5 -2.598076211353316 0 6.499999999999999 -1.732050807568877 0 1 1 3 -630 137 633 
175 6 -2.598076211353316 0 7 -1.732050807568877 0 1 1 3 -633 138 -619 
176 6 -2.220446049250313e-16 0 7 0.8660254037844384 0 1 1 3 637 139 639 
177 5.5 -2.220446049250313e-16 0 6.5 0.8660254037844384 0 1 1 3 -639 140 642 
178 5 -2.220446049250313e-16 0 6 0.8660254037844384 0 1 1 3 -642 -108 645 
179 5 -0.8660254037844388 0 6 -1.665334536937735e-16 0 1 1 3 -645 -97 648 
180 5.5 -0.8660254037844388 0 6.5 -2.220446049250313e-16 0 1 1 3 -648 -134 651 
181 6 -0.8660254037844388 0 7 -1.665334536937735e-16 0 1 1 3 -651 144 -637 
182 6 1.732050807568877 0 7 2.598076211353316 0 1 1 3 655 145 657 
183 5.5 1.732050807568877 0 6.5 2.598076211353316 0 1 1 3 -657 146 660 
184 5 1.732050807568877 0 6 2.598076211353316 0 1 1 3 -660 -114 663 
185 5 0.8660254037844384 0 6 1.732050807568877 0 1 1 3 -663 -103 666 
186 5.5 0.8660254037844384 0 6.5 1.732050807568877 0 1 1 3 -666 -140 669 
187 6 0.8660254037844384 0 7 1.732050807568877 0 1 1 3 -669 150 -655 
188 6 3.464101615137754 0 7 4.330127018922193 0 1 1 3 673 151 675 
189 5.5 3.464101615137754 0 6.5 4.330127018922193 0 1 1 3 -675 152 678 
190 5 3.464101615137754 0 6 4.330127018922193 0 1 1 3 -678 -120 681 
191 5 2.598076211353316 0 6 3.464101615137754 0 1 1 3 -681 -109 684 
192 5.5 2.598076211353316 0 6.5 3.464101615137754 0 1 1 3 -684 -146 687 
193 6 2.598076211353316 0 7 3.464101615137754 0 1 1 3 -687 156 -673 
194 6 5.196152422706631 0 7 6.06217782649107 0 1 1 3 691 157 693 
195 5.5 5.196152422706631 0 6.5 6.06217782649107 0 1 1 3 -693 158 696 
196 5 5.196152422706631 0 6 6.06217782649107 0 1 1 3 -696 -126 699 
197 5 4.330127018922193 0 6 5.196152422706631 0 1 1 3 -699 -115 702 
198 5.5 4.330127018922193 0 6.5 5.196152422706631 0 1 1 3 -702 -152 705 
199 6 4.330127018922193 0 7 5.196152422706631 0 1 1 3 -705 162 -691 
200 6 6.928203230275507 0 7 7.794228634059946 0 1 1 3 709 163 711 
201 5.5 6.928203230275507 0 6.5 7.794228634059948 0 1 1 3 -711 164 714 
202 5 6.928203230275507 0 6 7.794228634059948 0 1 1 3 -714 -132 717 
203 5 6.06217782649107 0 6 6.928203230275508 0 1 1 3 -717 -121 720 
204 5.5 6.06217782649107 0 6.5 6.928203230275507 0 1 1 3 -720 -158 723 
205 6 6.06217782649107 0 7 6.928203230275508 0 1 1 3 -723 168 -709 
206 7.5 -0.8660254037844388 0 8.5 -2.220446049250313e-16 0 1 1 3 727 169 729 
207 7 -0.8660254037844388 0 8 -2.220446049250313e-16 0 1 1 3 -729 170 732 
208 6.5 -0.8660254037844388 0 7.5 -2.220446049250313e-16 0 1 1 3 -732 -144 735 
209 6.5 -1.732050807568877 0 7.5 -0.8660254037844388 0 1 1 3 -735 -133 738 
210 7 -1.732050807568878 0 7.999999999999999 -0.8660254037844388 0 1 1 3 -738 173 741 
211 7.5 -1.732050807568878 0 8.5 -0.8660254037844388 0 1 1 3 -741 174 -727 
212 7.5 0.8660254037844384 0 8.5 1.732050807568877 0 1 1 3 745 175 747 
213 7 0.8660254037844384 0 8 1.732050807568877 0 1 1 3 -747 176 750 
214 6.5 0.8660254037844384 0 7.5 1.732050807568877 0 1 1 3 -750 -150 753 
215 6.5 -2.220446049250313e-16 0 7.5 0.8660254037844384 0 1 1 3 -753 -139 756 
216 7 -2.220446049250313e-16 0 8 0.8660254037844384 0 1 1 3 -756 -170 759 
217 7.5 -2.220446049250313e-16 0 8.5 0.8660254037844384 0 1 1 3 -759 180 -745 
218 7.5 2.598076211353316 0 8.5 3.464101615137754 0 1 1 3 763 181 765 
219 7 2.598076211353316 0 8 3.464101615137754 0 1 1 3 -765 182 768 
220 6.5 2.598076211353316 0 7.5 3.464101615137754 0 1 1 3 -768 -156 771 
221 6.5 1.732050807568877 0 7.5 2.598076211353316 0 1 1 3 -771 -145 774 
222 7 1.732050807568877 0 8 2.598076211353316 0 1 1 3 -774 -176 777 
223 7.5 1.732050807568877 0 8.5 2.598076211353316 0 1 1 3 -777 186 -763 
224 7.5 4.330127018922192 0 8.5 5.196152422706631 0 1 1 3 781 187 783 
225 7 4.330127018922192 0 8 5.196152422706631 0 1 1 3 -783 188 786 
226 6.5 4.330127018922192 0 7.5 5.196152422706631 0 1 1 3 -786 -162 789 
227 6.5 3.464101615137754 0 7.5 4.330127018922193 0 1 1 3 -789 -151 792 
228 7 3.464101615137754 0 8 4.330127018922192 0 1 1 3 -792 -182 795 
229 7.5 3.464101615137754 0 8.5 4.330127018922193 0 1 1 3 -795 192 -781 
230 7.5 6.06217782649107 0 8.5 6.928203230275508 0 1 1 3 799 193 801 
231 7 6.06217782649107 0 8 6.928203230275508 0 1 1 3 -801 194 804 
232 6.5 6.06217782649107 0 7.5 6.928203230275508 0 1 1 3 -804 -168 807 
233 6.5 5.196152422706631 0 7.5 6.06217782649107 0 1 1 3 -807 -157 810 
234 7 5.196152422706631 0 8 6.06217782649107 0 1 1 3 -810 -188 813 
235 7.5 5.196152422706631 0 8.5 6.06217782649107 0 1 1 3 -813 198 -799 
236 9 -2.220446049250313e-16 0 10 0.8660254037844384 0 1 1 3 817 199 819 
237 8.5 -2.220446049250313e-16 0 9.5 0.8660254037844384 0 1 1 3 -819 200 822 
238 8 -2.220446049250313e-16 0 9 0.8660254037844384 0 1 1 3 -822 -180 825 
239 8 -0.8660254037844388 0 9 -1.665334536937735e-16 0 1 1 3 -825 -169 828 
240 8.5 -0.8660254037844393 0 9.5 -2.220446049250313e-16 0 1 1 3 -828 203 831 
241 9 -0.8660254037844393 0 10 -1.665334536937735e-16 0 1 1 3 -831 204 -817 
242 9 1.732050807568877 0 10 2.598076211353316 0 1 1 3 835 205 837 
243 8.5 1.732050807568877 0 9.5 2.598076211353316 0 1 1 3 -837 206 840 
244 8 1.732050807568877 0 9 2.598076211353316 0 1 1 3 -840 -186 843 
245 8 0.8660254037844384 0 9 1.732050807568877 0 1 1 3 -843 -175 846 
246 8.5 0.8660254037844384 0 9.5 1.732050807568877 0 1 1 3 -846 -200 849 
247 9 0.8660254037844384 0 10 1.732050807568877 0 1 1 3 -849 210 -835 
248 9 3.464101615137754 0 10 4.330127018922193 0 1 1 3 853 211 855 
249 8.5 3.464101615137754 0 9.5 4.330127018922193 0 1 1 3 -855 212 858 
250 8 3.464101615137754 0 9 4.330127018922193 0 1 1 3 -858 -192 861 
251 8 2.598076211353316 0 9 3.464101615137754 0 1 1 3 -861 -181 864 
252 8.5 2.598076211353316 0 9.5 3.464101615137754 0 1 1 3 -864 -206 867 
253 9 2.598076211353316 0 10 3.464101615137754 0 1 1 3 -867 216 -853 
254 9 5.196152422706632 0 10 6.06217782649107 0 1 1 3 871 217 873 
255 8.5 5.196152422706632 0 9.5 6.06217782649107 0 1 1 3 -873 218 876 
256 8 5.196152422706631 0 9 6.06217782649107 0 1 1 3 -876 -198 879 
257 8 4.330127018922193 0 9 5.196152422706632 0 1 1 3 -879 -187 882 
258 8.5 4.330127018922193 0 9.5 5.196152422706632 0 1 1 3 -882 -212 885 
259 9 4.330127018922193 0 10 5.196152422706632 0 1 1 3 -885 222 -871 
$EndEntities
$Nodes
487 133 1 133
0 1 0 1
1
1 0 0
0 2 0 1
2
0.5000000000000001 0.8660254037844386 0
0 3 0 1
3
-0.4999999999999998 0.8660254037844387 0
0 4 0 1
4
-1 1.224646799147353e-16 0
0 5 0 1
5
-0.5000000000000004 -0.8660254037844384 0
0 6 0 1
6
0.4999999999999993 -0.866025403784439 0
0 7 0 1
7
1 1.732050807568877 0
0 8 0 1
8
0.5000000000000001 2.598076211353316 0
0 9 0 1
9
-0.4999999999999998 2.598076211353316 0
0 10 0 1
10
-1 1.732050807568877 0
0 13 0 1
11
1 3.464101615137754 0
0 14 0 1
12
0.5000000000000001 4.330127018922193 0
0 15 0 1
13
-0.4999999999999998 4.330127018922193 0
0 16 0 1
14
-1 3.464101615137754 0
0 19 0 1
15
1 5.196152422706632 0
0 20 0 1
16
0.5000000000000001 6.06217782649107 0
0 21 0 1
17
-0.4999999999999998 6.06217782649107 0
0 22 0 1
18
-1 5.196152422706632 0
0 25 0 1
19
2.5 -0.8660254037844386 0
0 26 0 1
20
2 0 0
0 29 0 1
21
0.9999999999999996 -1.732050807568877 0
0 30 0 1
22
1.999999999999999 -1.732050807568878 0
0 31 0 1
23
2.5 0.8660254037844386 0
0 32 0 1
24
2 1.732050807568877 0
0 37 0 1
25
2.5 2.598076211353316 0
0 38 0 1
26
2 3.464101615137754 0
0 43 0 1
27
2.5 4.330127018922194 0
0 44 0 1
28
2 5.196152422706632 0
0 49 0 1
29
2.5 6.06217782649107 0
0 50 0 1
30
2 6.928203230275509 0
0 51 0 1
31
1 6.928203230275509 0
0 55 0 1
32
4 -1.732050807568877 0
0 56 0 1
33
3.5 -0.8660254037844386 0
0 59 0 1
34
2.5 -2.598076211353316 0
0 60 0 1
35
3.499999999999999 -2.598076211353316 0
0 61 0 1
36
4 0 0
0 62 0 1
37
3.5 0.8660254037844386 0
0 67 0 1
38
4 1.732050807568877 0
0 68 0 1
39
3.5 2.598076211353316 0
0 73 0 1
40
4 3.464101615137755 0
0 74 0 1
41
3.5 4.330127018922194 0
0 79 0 1
42
4 5.196152422706632 0
0 80 0 1
43
3.5 6.06217782649107 0
0 85 0 1
44
4 6.928203230275509 0
0 86 0 1
45
3.5 7.794228634059947 0
0 87 0 1
46
2.5 7.794228634059947 0
0 91 0 1
47
5.5 -2.598076211353316 0
0 92 0 1
48
5 -1.732050807568877 0
0 95 0 1
49
4 -3.464101615137754 0
0 96 0 1
50
4.999999999999999 -3.464101615137755 0
0 97 0 1
51
5.5 -0.8660254037844388 0
0 98 0 1
52
5 -2.220446049250313e-16 0
0 103 0 1
53
5.5 0.8660254037844384 0
0 104 0 1
54
5 1.732050807568877 0
0 109 0 1
55
5.5 2.598076211353316 0
0 110 0 1
56
5 3.464101615137754 0
0 115 0 1
57
5.5 4.330127018922193 0
0 116 0 1
58
5 5.196152422706631 0
0 121 0 1
59
5.5 6.06217782649107 0
0 122 0 1
60
5 6.928203230275508 0
0 127 0 1
61
5.5 7.794228634059948 0
0 128 0 1
62
5 8.660254037844387 0
0 129 0 1
63
4 8.660254037844387 0
0 133 0 1
64
7 -1.732050807568877 0
0 134 0 1
65
6.5 -0.8660254037844388 0
0 138 0 1
66
6.499999999999999 -2.598076211353316 0
0 139 0 1
67
7 -2.220446049250313e-16 0
0 140 0 1
68
6.5 0.8660254037844384 0
0 145 0 1
69
7 1.732050807568877 0
0 146 0 1
70
6.5 2.598076211353316 0
0 151 0 1
71
7 3.464101615137754 0
0 152 0 1
72
6.5 4.330127018922193 0
0 157 0 1
73
7 5.196152422706631 0
0 158 0 1
74
6.5 6.06217782649107 0
0 163 0 1
75
7 6.928203230275508 0
0 164 0 1
76
6.5 7.794228634059946 0
0 169 0 1
77
8.5 -0.8660254037844388 0
0 170 0 1
78
8 -2.220446049250313e-16 0
0 174 0 1
79
7.999999999999999 -1.732050807568878 0
0 175 0 1
80
8.5 0.8660254037844384 0
0 176 0 1
81
8 1.732050807568877 0
0 181 0 1
82
8.5 2.598076211353316 0
0 182 0 1
83
8 3.464101615137754 0
0 187 0 1
84
8.5 4.330127018922193 0
0 188 0 1
85
8 5.196152422706631 0
0 193 0 1
86
8.5 6.06217782649107 0
0 194 0 1
87
8 6.928203230275508 0
0 199 0 1
88
10 -2.220446049250313e-16 0
0 200 0 1
89
9.5 0.8660254037844384 0
0 204 0 1
90
9.5 -0.8660254037844393 0
0 205 0 1
91
10 1.732050807568877 0
0 206 0 1
92
9.5 2.598076211353316 0
0 211 0 1
93
10 3.464101615137754 0
0 212 0 1
94
9.5 4.330127018922193 0
0 217 0 1
95
10 5.196152422706632 0
0 218 0 1
96
9.5 6.06217782649107 0
0 223 0 1
97
-1.480297366166875e-16 0 0
0 224 0 1
98
-1.480297366166875e-16 1.732050807568877 0
0 225 0 1
99
-1.480297366166875e-16 3.464101615137754 0
0 226 0 1
100
-1.480297366166875e-16 5.196152422706632 0
0 227 0 1
101
1.5 -0.8660254037844387 0
0 228 0 1
102
1.5 0.8660254037844384 0
0 229 0 1
103
1.5 2.598076211353316 0
0 230 0 1
104
1.5 4.330127018922194 0
0 231 0 1
105
1.5 6.06217782649107 0
0 232 0 1
106
3 -1.732050807568877 0
0 233 0 1
107
3 0 0
0 234 0 1
108
3 1.732050807568877 0
0 235 0 1
109
3 3.464101615137755 0
0 236 0 1
110
3 5.196152422706632 0
0 237 0 1
111
3 6.92820323027551 0
0 238 0 1
112
4.5 -2.598076211353316 0
0 239 0 1
113
4.5 -0.8660254037844388 0
0 240 0 1
114
4.5 0.8660254037844384 0
0 241 0 1
115
4.5 2.598076211353316 0
0 242 0 1
116
4.5 4.330127018922192 0
0 243 0 1
117
4.5 6.06217782649107 0
0 244 0 1
118
4.5 7.794228634059948 0
0 245 0 1
119
6 -1.732050807568877 0
0 246 0 1
120
6 -1.850371707708594e-16 0
0 247 0 1
121
6 1.732050807568877 0
0 248 0 1
122
6 3.464101615137754 0
0 249 0 1
123
6 5.196152422706631 0
0 250 0 1
124
6 6.928203230275507 0
0 251 0 1
125
7.5 -0.8660254037844388 0
0 252 0 1
126
7.5 0.8660254037844384 0
0 253 0 1
127
7.5 2.598076211353316 0
0 254 0 1
128
7.5 4.330127018922192 0
0 255 0 1
129
7.5 6.06217782649107 0
0 256 0 1
130
9 -1.850371707708594e-16 0
0 257 0 1
131
9 1.732050807568877 0
0 258 0 1
132
9 3.464101615137754 0
0 259 0 1
133
9 5.196152422706632 0
1 1 0 0
1 2 0 0
1 3 0 0
1 4 0 0
1 5 0 0
1 6 0 0
1 7 0 0
1 8 0 0
1 9 0 0
1 10 0 0
1 12 0 0
1 13 0 0
1 14 0 0
1 15 0 0
1 16 0 0
1 18 0 0
1 19 0 0
1 20 0 0
1 21 0 0
1 22 0 0
1 24 0 0
1 25 0 0
1 26 0 0
1 28 0 0
1 29 0 0
1 30 0 0
1 31 0 0
1 32 0 0
1 36 0 0
1 37 0 0
1 38 0 0
1 42 0 0
1 43 0 0
1 44 0 0
1 48 0 0
1 49 0 0
1 50 0 0
1 51 0 0
1 54 0 0
1 55 0 0
1 56 0 0
1 58 0 0
1 59 0 0
1 60 0 0
1 61 0 0
1 62 0 0
1 66 0 0
1 67 0 0
1 68 0 0
1 72 0 0
1 73 0 0
1 74 0 0
1 78 0 0
1 79 0 0
1 80 0 0
1 84 0 0
1 85 0 0
1 86 0 0
1 87 0 0
1 90 0 0
1 91 0 0
1 92 0 0
1 94 0 0
1 95 0 0
1 96 0 0
1 97 0 0
1 98 0 0
1 102 0 0
1 103 0 0
1 104 0 0
1 108 0 0
1 109 0 0
1 110 0 0
1 114 0 0
1 115 0 0
1 116 0 0
1 120 0 0
1 121 0 0
1 122 0 0
1 126 0 0
1 127 0 0
1 128 0 0
1 129 0 0
1 132 0 0
1 133 0 0
1 134 0 0
1 137 0 0
1 138 0 0
1 139 0 0
1 140 0 0
1 144 0 0
1 145 0 0
1 146 0 0
1 150 0 0
1 151 0 0
1 152 0 0
1 156 0 0
1 157 0 0
1 158 0 0
1 162 0 0
1 163 0 0
1 164 0 0
1 168 0 0
1 169 0 0
1 170 0 0
1 173 0 0
1 174 0 0
1 175 0 0
1 176 0 0
1 180 0 0
1 181 0 0
1 182 0 0
1 186 0 0
1 187 0 0
1 188 0 0
1 192 0 0
1 193 0 0
1 194 0 0
1 198 0 0
1 199 0 0
1 200 0 0
1 203 0 0
1 204 0 0
1 205 0 0
1 206 0 0
1 210 0 0
1 211 0 0
1 212 0 0
1 216 0 0
1 217 0 0
1 218 0 0
1 222 0 0
2 38 0 0
2 39 0 0
2 40 0 0
2 41 0 0
2 42 0 0
2 43 0 0
2 44 0 0
2 45 0 0
2 46 0 0
2 47 0 0
2 48 0 0
2 49 0 0
2 50 0 0
2 51 0 0
2 52 0 0
2 53 0 0
2 54 0 0
2 55 0 0
2 56 0 0
2 57 0 0
2 58 0 0
2 59 0 0
2 60 0 0
2 61 0 0
2 62 0 0
2 63 0 0
2 64 0 0
2 65 0 0
2 66 0 0
2 67 0 0
2 68 0 0
2 69 0 0
2 70 0 0
2 71 0 0
2 72 0 0
2 73 0 0
2 74 0 0
2 75 0 0
2 76 0 0
2 77 0 0
2 78 0 0
2 79 0 0
2 80 0 0
2 81 0 0
2 82 0 0
2 83 0 0
2 84 0 0
2 85 0 0
2 86 0 0
2 87 0 0
2 88 0 0
2 89 0 0
2 90 0 0
2 91 0 0
2 92 0 0
2 93 0 0
2 94 0 0
2 95 0 0
2 96 0 0
2 97 0 0
2 98 0 0
2 99 0 0
2 100 0 0
2 101 0 0
2 102 0 0
2 103 0 0
2 104 0 0
2 105 0 0
2 106 0 0
2 107 0 0
2 108 0 0
2 109 0 0
2 110 0 0
2 111 0 0
2 112 0 0
2 113 0 0
2 114 0 0
2 115 0 0
2 116 0 0
2 117 0 0
2 118 0 0
2 119 0 0
2 120 0 0
2 121 0 0
2 122 0 0
2 123 0 0
2 124 0 0
2 125 0 0
2 126 0 0
2 127 0 0
2 128 0 0
2 129 0 0
2 130 0 0
2 131 0 0
2 132 0 0
2 133 0 0
2 134 0 0
2 135 0 0
2 136 0 0
2 137 0 0
2 138 0 0
2 139 0 0
2 140 0 0
2 141 0 0
2 142 0 0
2 143 0 0
2 144 0 0
2 145 0 0
2 146 0 0
2 147 0 0
2 148 0 0
2 149 0 0
2 150 0 0
2 151 0 0
2 152 0 0
2 153 0 0
2 154 0 0
2 155 0 0
2 156 0 0
2 157 0 0
2 158 0 0
2 159 0 0
2 160 0 0
2 161 0 0
2 162 0 0
2 163 0 0
2 164 0 0
2 165 0 0
2 166 0 0
2 167 0 0
2 168 0 0
2 169 0 0
2 170 0 0
2 171 0 0
2 172 0 0
2 173 0 0
2 174 0 0
2 175 0 0
2 176 0 0
2 177 0 0
2 178 0 0
2 179 0 0
2 180 0 0
2 181 0 0
2 182 0 0
2 183 0 0
2 184 0 0
2 185 0 0
2 186 0 0
2 187 0 0
2 188 0 0
2 189 0 0
2 190 0 0
2 191 0 0
2 192 0 0
2 193 0 0
2 194 0 0
2 195 0 0
2 196 0 0
2 197 0 0
2 198 0 0
2 199 0 0
2 200 0 0
2 201 0 0
2 202 0 0
2 203 0 0
2 204 0 0
2 205 0 0
2 206 0 0
2 207 0 0
2 208 0 0
2 209 0 0
2 210 0 0
2 211 0 0
2 212 0 0
2 213 0 0
2 214 0 0
2 215 0 0
2 216 0 0
2 217 0 0
2 218 0 0
2 219 0 0
2 220 0 0
2 221 0 0
2 222 0 0
2 223 0 0
2 224 0 0
2 225 0 0
2 226 0 0
2 227 0 0
2 228 0 0
2 229 0 0
2 230 0 0
2 231 0 0
2 232 0 0
2 233 0 0
2 234 0 0
2 235 0 0
2 236 0 0
2 237 0 0
2 238 0 0
2 239 0 0
2 240 0 0
2 241 0 0
2 242 0 0
2 243 0 0
2 244 0 0
2 245 0 0
2 246 0 0
2 247 0 0
2 248 0 0
2 249 0 0
2 250 0 0
2 251 0 0
2 252 0 0
2 253 0 0
2 254 0 0
2 255 0 0
2 256 0 0
2 257 0 0
2 258 0 0
2 259 0 0
$EndNodes
$Elements
354 354 1 354
1 1 1 1
1 1 2 
1 2 1 1
2 2 3 
1 3 1 1
3 3 4 
1 4 1 1
4 4 5 
1 5 1 1
5 5 6 
1 6 1 1
6 6 1 
1 7 1 1
7 7 8 
1 8 1 1
8 8 9 
1 9 1 1
9 9 10 
1 10 1 1
10 10 3 
1 12 1 1
11 2 7 
1 13 1 1
12 11 12 
1 14 1 1
13 12 13 
1 15 1 1
14 13 14 
1 16 1 1
15 14 9 
1 18 1 1
16 8 11 
1 19 1 1
17 15 16 
1 20 1 1
18 16 17 
1 21 1 1
19 17 18 
1 22 1 1
20 18 13 
1 24 1 1
21 12 15 
1 25 1 1
22 19 20 
1 26 1 1
23 20 1 
1 28 1 1
24 6 21 
1 29 1 1
25 21 22 
1 30 1 1
26 22 19 
1 31 1 1
27 23 24 
1 32 1 1
28 24 7 
1 36 1 1
29 20 23 
1 37 1 1
30 25 26 
1 38 1 1
31 26 11 
1 42 1 1
32 24 25 
1 43 1 1
33 27 28 
1 44 1 1
34 28 15 
1 48 1 1
35 26 27 
1 49 1 1
36 29 30 
1 50 1 1
37 30 31 
1 51 1 1
38 31 16 
1 54 1 1
39 28 29 
1 55 1 1
40 32 33 
1 56 1 1
41 33 19 
1 58 1 1
42 22 34 
1 59 1 1
43 34 35 
1 60 1 1
44 35 32 
1 61 1 1
45 36 37 
1 62 1 1
46 37 23 
1 66 1 1
47 33 36 
1 67 1 1
48 38 39 
1 68 1 1
49 39 25 
1 72 1 1
50 37 38 
1 73 1 1
51 40 41 
1 74 1 1
52 41 27 
1 78 1 1
53 39 40 
1 79 1 1
54 42 43 
1 80 1 1
55 43 29 
1 84 1 1
56 41 42 
1 85 1 1
57 44 45 
1 86 1 1
58 45 46 
1 87 1 1
59 46 30 
1 90 1 1
60 43 44 
1 91 1 1
61 47 48 
1 92 1 1
62 48 32 
1 94 1 1
63 35 49 
1 95 1 1
64 49 50 
1 96 1 1
65 50 47 
1 97 1 1
66 51 52 
1 98 1 1
67 52 36 
1 102 1 1
68 48 51 
1 103 1 1
69 53 54 
1 104 1 1
70 54 38 
1 108 1 1
71 52 53 
1 109 1 1
72 55 56 
1 110 1 1
73 56 40 
1 114 1 1
74 54 55 
1 115 1 1
75 57 58 
1 116 1 1
76 58 42 
1 120 1 1
77 56 57 
1 121 1 1
78 59 60 
1 122 1 1
79 60 44 
1 126 1 1
80 58 59 
1 127 1 1
81 61 62 
1 128 1 1
82 62 63 
1 129 1 1
83 63 45 
1 132 1 1
84 60 61 
1 133 1 1
85 64 65 
1 134 1 1
86 65 51 
1 137 1 1
87 47 66 
1 138 1 1
88 66 64 
1 139 1 1
89 67 68 
1 140 1 1
90 68 53 
1 144 1 1
91 65 67 
1 145 1 1
92 69 70 
1 146 1 1
93 70 55 
1 150 1 1
94 68 69 
1 151 1 1
95 71 72 
1 152 1 1
96 72 57 
1 156 1 1
97 70 71 
1 157 1 1
98 73 74 
1 158 1 1
99 74 59 
1 162 1 1
100 72 73 
1 163 1 1
101 75 76 
1 164 1 1
102 76 61 
1 168 1 1
103 74 75 
1 169 1 1
104 77 78 
1 170 1 1
105 78 67 
1 173 1 1
106 64 79 
1 174 1 1
107 79 77 
1 175 1 1
108 80 81 
1 176 1 1
109 81 69 
1 180 1 1
110 78 80 
1 181 1 1
111 82 83 
1 182 1 1
112 83 71 
1 186 1 1
113 81 82 
1 187 1 1
114 84 85 
1 188 1 1
115 85 73 
1 192 1 1
116 83 84 
1 193 1 1
117 86 87 
1 194 1 1
118 87 75 
1 198 1 1
119 85 86 
1 199 1 1
120 88 89 
1 200 1 1
121 89 80 
1 203 1 1
122 77 90 
1 204 1 1
123 90 88 
1 205 1 1
124 91 92 
1 206 1 1
125 92 82 
1 210 1 1
126 89 91 
1 211 1 1
127 93 94 
1 212 1 1
128 94 84 
1 216 1 1
129 92 93 
1 217 1 1
130 95 96 
1 218 1 1
131 96 86 
1 222 1 1
132 94 95 
2 38 2 1
133 1 2 97 
2 39 2 1
134 2 3 97 
2 40 2 1
135 3 4 97 
2 41 2 1
136 4 5 97 
2 42 2 1
137 5 6 97 
2 43 2 1
138 1 97 6 
2 44 2 1
139 7 8 98 
2 45 2 1
140 8 9 98 
2 46 2 1
141 9 10 98 
2 47 2 1
142 3 98 10 
2 48 2 1
143 2 98 3 
2 49 2 1
144 2 7 98 
2 50 2 1
145 11 12 99 
2 51 2 1
146 12 13 99 
2 52 2 1
147 13 14 99 
2 53 2 1
148 9 99 14 
2 54 2 1
149 8 99 9 
2 55 2 1
150 8 11 99 
2 56 2 1
151 15 16 100 
2 57 2 1
152 16 17 100 
2 58 2 1
153 17 18 100 
2 59 2 1
154 13 100 18 
2 60 2 1
155 12 100 13 
2 61 2 1
156 12 15 100 
2 62 2 1
157 19 20 101 
2 63 2 1
158 1 101 20 
2 64 2 1
159 1 6 101 
2 65 2 1
160 6 21 101 
2 66 2 1
161 21 22 101 
2 67 2 1
162 19 101 22 
2 68 2 1
163 23 24 102 
2 69 2 1
164 7 102 24 
2 70 2 1
165 2 102 7 
2 71 2 1
166 1 102 2 
2 72 2 1
167 1 20 102 
2 73 2 1
168 20 23 102 
2 74 2 1
169 25 26 103 
2 75 2 1
170 11 103 26 
2 76 2 1
171 8 103 11 
2 77 2 1
172 7 103 8 
2 78 2 1
173 7 24 103 
2 79 2 1
174 24 25 103 
2 80 2 1
175 27 28 104 
2 81 2 1
176 15 104 28 
2 82 2 1
177 12 104 15 
2 83 2 1
178 11 104 12 
2 84 2 1
179 11 26 104 
2 85 2 1
180 26 27 104 
2 86 2 1
181 29 30 105 
2 87 2 1
182 30 31 105 
2 88 2 1
183 16 105 31 
2 89 2 1
184 15 105 16 
2 90 2 1
185 15 28 105 
2 91 2 1
186 28 29 105 
2 92 2 1
187 32 33 106 
2 93 2 1
188 19 106 33 
2 94 2 1
189 19 22 106 
2 95 2 1
190 22 34 106 
2 96 2 1
191 34 35 106 
2 97 2 1
192 32 106 35 
2 98 2 1
193 36 37 107 
2 99 2 1
194 23 107 37 
2 100 2 1
195 20 107 23 
2 101 2 1
196 19 107 20 
2 102 2 1
197 19 33 107 
2 103 2 1
198 33 36 107 
2 104 2 1
199 38 39 108 
2 105 2 1
200 25 108 39 
2 106 2 1
201 24 108 25 
2 107 2 1
202 23 108 24 
2 108 2 1
203 23 37 108 
2 109 2 1
204 37 38 108 
2 110 2 1
205 40 41 109 
2 111 2 1
206 27 109 41 
2 112 2 1
207 26 109 27 
2 113 2 1
208 25 109 26 
2 114 2 1
209 25 39 109 
2 115 2 1
210 39 40 109 
2 116 2 1
211 42 43 110 
2 117 2 1
212 29 110 43 
2 118 2 1
213 28 110 29 
2 119 2 1
214 27 110 28 
2 120 2 1
215 27 41 110 
2 121 2 1
216 41 42 110 
2 122 2 1
217 44 45 111 
2 123 2 1
218 45 46 111 
2 124 2 1
219 30 111 46 
2 125 2 1
220 29 111 30 
2 126 2 1
221 29 43 111 
2 127 2 1
222 43 44 111 
2 128 2 1
223 47 48 112 
2 129 2 1
224 32 112 48 
2 130 2 1
225 32 35 112 
2 131 2 1
226 35 49 112 
2 132 2 1
227 49 50 112 
2 133 2 1
228 47 112 50 
2 134 2 1
229 51 52 113 
2 135 2 1
230 36 113 52 
2 136 2 1
231 33 113 36 
2 137 2 1
232 32 113 33 
2 138 2 1
233 32 48 113 
2 139 2 1
234 48 51 113 
2 140 2 1
235 53 54 114 
2 141 2 1
236 38 114 54 
2 142 2 1
237 37 114 38 
2 143 2 1
238 36 114 37 
2 144 2 1
239 36 52 114 
2 145 2 1
240 52 53 114 
2 146 2 1
241 55 56 115 
2 147 2 1
242 40 115 56 
2 148 2 1
243 39 115 40 
2 149 2 1
244 38 115 39 
2 150 2 1
245 38 54 115 
2 151 2 1
246 54 55 115 
2 152 2 1
247 57 58 116 
2 153 2 1
248 42 116 58 
2 154 2 1
249 41 116 42 
2 155 2 1
250 40 116 41 
2 156 2 1
251 40 56 116 
2 157 2 1
252 56 57 116 
2 158 2 1
253 59 60 117 
2 159 2 1
254 44 117 60 
2 160 2 1
255 43 117 44 
2 161 2 1
256 42 117 43 
2 162 2 1
257 42 58 117 
2 163 2 1
258 58 59 117 
2 164 2 1
259 61 62 118 
2 165 2 1
260 62 63 118 
2 166 2 1
261 45 118 63 
2 167 2 1
262 44 118 45 
2 168 2 1
263 44 60 118 
2 169 2 1
264 60 61 118 
2 170 2 1
265 64 65 119 
2 171 2 1
266 51 119 65 
2 172 2 1
267 48 119 51 
2 173 2 1
268 47 119 48 
2 174 2 1
269 47 66 119 
2 175 2 1
270 64 119 66 
2 176 2 1
271 67 68 120 
2 177 2 1
272 53 120 68 
2 178 2 1
273 52 120 53 
2 179 2 1
274 51 120 52 
2 180 2 1
275 51 65 120 
2 181 2 1
276 65 67 120 
2 182 2 1
277 69 70 121 
2 183 2 1
278 55 121 70 
2 184 2 1
279 54 121 55 
2 185 2 1
280 53 121 54 
2 186 2 1
281 53 68 121 
2 187 2 1
282 68 69 121 
2 188 2 1
283 71 72 122 
2 189 2 1
284 57 122 72 
2 190 2 1
285 56 122 57 
2 191 2 1
286 55 122 56 
2 192 2 1
287 55 70 122 
2 193 2 1
288 70 71 122 
2 194 2 1
289 73 74 123 
2 195 2 1
290 59 123 74 
2 196 2 1
291 58 123 59 
2 197 2 1
292 57 123 58 
2 198 2 1
293 57 72 123 
2 199 2 1
294 72 73 123 
2 200 2 1
295 75 76 124 
2 201 2 1
296 61 124 76 
2 202 2 1
297 60 124 61 
2 203 2 1
298 59 124 60 
2 204 2 1
299 59 74 124 
2 205 2 1
300 74 75 124 
2 206 2 1
301 77 78 125 
2 207 2 1
302 67 125 78 
2 208 2 1
303 65 125 67 
2 209 2 1
304 64 125 65 
2 210 2 1
305 64 79 125 
2 211 2 1
306 77 125 79 
2 212 2 1
307 80 81 126 
2 213 2 1
308 69 126 81 
2 214 2 1
309 68 126 69 
2 215 2 1
310 67 126 68 
2 216 2 1
311 67 78 126 
2 217 2 1
312 78 80 126 
2 218 2 1
313 82 83 127 
2 219 2 1
314 71 127 83 
2 220 2 1
315 70 127 71 
2 221 2 1
316 69 127 70 
2 222 2 1
317 69 81 127 
2 223 2 1
318 81 82 127 
2 224 2 1
319 84 85 128 
2 225 2 1
320 73 128 85 
2 226 2 1
321 72 128 73 
2 227 2 1
322 71 128 72 
2 228 2 1
323 71 83 128 
2 229 2 1
324 83 84 128 
2 230 2 1
325 86 87 129 
2 231 2 1
326 75 129 87 
2 232 2 1
327 74 129 75 
2 233 2 1
328 73 129 74 
2 234 2 1
329 73 85 129 
2 235 2 1
330 85 86 129 
2 236 2 1
331 88 89 130 
2 237 2 1
332 80 130 89 
2 238 2 1
333 78 130 80 
2 239 2 1
334 77 130 78 
2 240 2 1
335 77 90 130 
2 241 2 1
336 88 130 90 
2 242 2 1
337 91 92 131 
2 243 2 1
338 82 131 92 
2 244 2 1
339 81 131 82 
2 245 2 1
340 80 131 81 
2 246 2 1
341 80 89 131 
2 247 2 1
342 89 91 131 
2 248 2 1
343 93 94 132 
2 249 2 1
344 84 132 94 
2 250 2 1
345 83 132 84 
2 251 2 1
346 82 132 83 
2 252 2 1
347 82 92 132 
2 253 2 1
348 92 93 132 
2 254 2 1
349 95 96 133 
2 255 2 1
350 86 133 96 
2 256 2 1
351 85 133 86 
2 257 2 1
352 84 133 85 
2 258 2 1
353 84 94 133 
2 259 2 1
354 94 95 133 
$EndElements
