$MeshFormat
4.1 0 8
$EndMeshFormat
$PhysicalNames
3
1 -2 "lixo"
1 2 "hexagon"
2 1 "domain"
$EndPhysicalNames
$Entities
31 72 42 0
1 1 0 0 0 
2 0.5000000000000001 0.8660254037844386 0 0 
3 -0.4999999999999998 0.8660254037844387 0 0 
4 -1 1.224646799147353e-16 0 0 
5 -0.5000000000000004 -0.8660254037844384 0 0 
6 0.4999999999999993 -0.866025403784439 0 0 
7 1 1.732050807568877 0 0 
8 0.5000000000000001 2.598076211353316 0 0 
9 -0.4999999999999998 2.598076211353316 0 0 
10 -1 1.732050807568877 0 0 
13 2.5 -0.8660254037844386 0 0 
14 2 0 0 0 
17 0.9999999999999996 -1.732050807568877 0 0 
18 1.999999999999999 -1.732050807568878 0 0 
19 2.5 0.8660254037844386 0 0 
20 2 1.732050807568877 0 0 
25 2.5 2.598076211353316 0 0 
26 2 3.464101615137754 0 0 
27 1 3.464101615137755 0 0 
31 4 0 0 0 
32 3.5 0.8660254037844386 0 0 
36 3.499999999999999 -0.866025403784439 0 0 
37 4 1.732050807568877 0 0 
38 3.5 2.598076211353316 0 0 
43 -1.480297366166875e-16 0 0 0 
44 -1.480297366166875e-16 1.732050807568877 0 0 
45 1.5 -0.8660254037844387 0 0 
46 1.5 0.8660254037844384 0 0 
47 1.5 2.598076211353316 0 0 
48 3 0 0 0 
49 3 1.732050807568877 0 0 
1 0.5000000000000001 0 0 1 0.8660254037844386 0 2 2 -2 2 1 -2 
2 -0.4999999999999999 0.8660254037844386 0 0.5000000000000001 0.8660254037844387 0 2 2 -2 2 2 -3 
3 -1 1.110223024625157e-16 0 -0.4999999999999998 0.8660254037844387 0 1 2 2 3 -4 
4 -1 -0.8660254037844384 0 -0.5000000000000004 1.110223024625157e-16 0 1 2 2 4 -5 
5 -0.5000000000000004 -0.866025403784439 0 0.4999999999999993 -0.8660254037844384 0 1 2 2 5 -6 
6 0.4999999999999993 -0.866025403784439 0 1 0 0 2 2 -2 2 6 -1 
7 0.5000000000000001 1.732050807568877 0 1 2.598076211353316 0 2 2 -2 2 7 -8 
8 -0.4999999999999999 2.598076211353316 0 0.5000000000000001 2.598076211353316 0 1 2 2 8 -9 
9 -1 1.732050807568877 0 -0.4999999999999998 2.598076211353316 0 1 2 2 9 -10 
10 -1 0.8660254037844387 0 -0.4999999999999998 1.732050807568877 0 1 2 2 10 -3 
12 0.5000000000000001 0.8660254037844386 0 1 1.732050807568877 0 2 2 -2 2 2 -7 
13 2 -0.8660254037844386 0 2.5 0 0 2 2 -2 2 13 -14 
14 1 0 0 2 0 0 2 2 -2 2 14 -1 
16 0.4999999999999993 -1.732050807568877 0 0.9999999999999996 -0.866025403784439 0 1 2 2 6 -17 
17 0.9999999999999996 -1.732050807568878 0 1.999999999999999 -1.732050807568877 0 1 2 2 17 -18 
18 1.999999999999999 -1.732050807568878 0 2.5 -0.8660254037844386 0 1 2 2 18 -13 
19 2 0.8660254037844386 0 2.5 1.732050807568877 0 2 2 -2 2 19 -20 
20 1 1.732050807568877 0 2 1.732050807568877 0 2 2 -2 2 20 -7 
24 2 0 0 2.5 0.8660254037844386 0 2 2 -2 2 14 -19 
25 2 2.598076211353316 0 2.5 3.464101615137754 0 1 2 2 25 -26 
26 1 3.464101615137754 0 2 3.464101615137755 0 1 2 2 26 -27 
27 0.5000000000000001 2.598076211353316 0 1 3.464101615137755 0 1 2 2 27 -8 
30 2 1.732050807568877 0 2.5 2.598076211353316 0 2 2 -2 2 20 -25 
31 3.5 0 0 4 0.8660254037844386 0 1 2 2 31 -32 
32 2.5 0.8660254037844386 0 3.5 0.8660254037844386 0 2 2 -2 2 32 -19 
35 2.5 -0.866025403784439 0 3.499999999999999 -0.8660254037844386 0 1 2 2 13 -36 
36 3.499999999999999 -0.866025403784439 0 4 0 0 1 2 2 36 -31 
37 3.5 1.732050807568877 0 4 2.598076211353316 0 1 2 2 37 -38 
38 2.5 2.598076211353316 0 3.5 2.598076211353316 0 1 2 2 38 -25 
42 3.5 0.8660254037844386 0 4 1.732050807568877 0 1 2 2 32 -37 
43 -1.665334536937735e-16 0 0 1 0 0 0 2 43 -1 
45 -1.110223024625157e-16 0 0 0.5000000000000001 0.8660254037844386 0 0 2 2 -43 
48 -0.4999999999999998 0 0 -1.665334536937735e-16 0.8660254037844387 0 0 2 3 -43 
51 -1 0 0 -1.110223024625157e-16 1.224646799147353e-16 0 0 2 4 -43 
54 -0.5000000000000004 -0.8660254037844384 0 -1.110223024625157e-16 0 0 0 2 5 -43 
57 -1.665334536937735e-16 -0.866025403784439 0 0.4999999999999993 0 0 0 2 6 -43 
61 -1.665334536937735e-16 1.732050807568877 0 1 1.732050807568877 0 0 2 44 -7 
63 -1.110223024625157e-16 1.732050807568877 0 0.5000000000000001 2.598076211353316 0 0 2 8 -44 
66 -0.4999999999999998 1.732050807568877 0 -1.665334536937735e-16 2.598076211353316 0 0 2 9 -44 
69 -1 1.732050807568877 0 -1.110223024625157e-16 1.732050807568877 0 0 2 10 -44 
72 -0.4999999999999998 0.8660254037844387 0 -1.665334536937735e-16 1.732050807568877 0 0 2 3 -44 
75 -1.110223024625157e-16 0.8660254037844386 0 0.5000000000000001 1.732050807568877 0 0 2 2 -44 
79 1.5 -0.8660254037844387 0 2.5 -0.8660254037844386 0 0 2 45 -13 
81 1.5 -0.8660254037844387 0 2 0 0 0 2 14 -45 
84 1 -0.8660254037844387 0 1.5 0 0 0 2 1 -45 
87 0.4999999999999993 -0.866025403784439 0 1.5 -0.8660254037844387 0 0 2 6 -45 
90 0.9999999999999996 -1.732050807568877 0 1.5 -0.8660254037844387 0 0 2 17 -45 
93 1.5 -1.732050807568878 0 1.999999999999999 -0.8660254037844387 0 0 2 18 -45 
97 1.5 0.8660254037844384 0 2.5 0.8660254037844386 0 0 2 46 -19 
99 1.5 0.8660254037844384 0 2 1.732050807568877 0 0 2 20 -46 
102 1 0.8660254037844384 0 1.5 1.732050807568877 0 0 2 7 -46 
105 0.5000000000000001 0.8660254037844384 0 1.5 0.8660254037844386 0 0 2 2 -46 
108 1 0 0 1.5 0.8660254037844384 0 0 2 1 -46 
111 1.5 0 0 2 0.8660254037844384 0 0 2 14 -46 
115 1.5 2.598076211353316 0 2.5 2.598076211353316 0 0 2 47 -25 
117 1.5 2.598076211353316 0 2 3.464101615137754 0 0 2 26 -47 
120 1 2.598076211353316 0 1.5 3.464101615137755 0 0 2 27 -47 
123 0.5000000000000001 2.598076211353316 0 1.5 2.598076211353316 0 0 2 8 -47 
126 1 1.732050807568877 0 1.5 2.598076211353316 0 0 2 7 -47 
129 1.5 1.732050807568877 0 2 2.598076211353316 0 0 2 20 -47 
133 3 0 0 4 0 0 0 2 48 -31 
135 3 0 0 3.5 0.8660254037844386 0 0 2 32 -48 
138 2.5 0 0 3 0.8660254037844386 0 0 2 19 -48 
141 2 0 0 3 0 0 0 2 14 -48 
144 2.5 -0.8660254037844386 0 3 0 0 0 2 13 -48 
147 3 -0.866025403784439 0 3.499999999999999 0 0 0 2 36 -48 
151 3 1.732050807568877 0 4 1.732050807568877 0 0 2 49 -37 
153 3 1.732050807568877 0 3.5 2.598076211353316 0 0 2 38 -49 
156 2.5 1.732050807568877 0 3 2.598076211353316 0 0 2 25 -49 
159 2 1.732050807568877 0 3 1.732050807568877 0 0 2 20 -49 
162 2.5 0.8660254037844386 0 3 1.732050807568877 0 0 2 19 -49 
165 3 0.8660254037844386 0 3.5 1.732050807568877 0 0 2 32 -49 
8 -1.665334536937735e-16 0 0 1 0.8660254037844386 0 1 1 3 43 1 45 
9 -0.4999999999999999 0 0 0.5000000000000001 0.8660254037844387 0 1 1 3 -45 2 48 
10 -1 0 0 -1.110223024625157e-16 0.8660254037844387 0 1 1 3 -48 3 51 
11 -1 -0.8660254037844384 0 -1.110223024625157e-16 1.110223024625157e-16 0 1 1 3 -51 4 54 
12 -0.5000000000000004 -0.866025403784439 0 0.4999999999999993 0 0 1 1 3 -54 5 57 
13 -1.110223024625157e-16 -0.866025403784439 0 1 0 0 1 1 3 -57 6 -43 
14 -1.665334536937735e-16 1.732050807568877 0 1 2.598076211353316 0 1 1 3 61 7 63 
15 -0.4999999999999999 1.732050807568877 0 0.5000000000000001 2.598076211353316 0 1 1 3 -63 8 66 
16 -1 1.732050807568877 0 -1.110223024625157e-16 2.598076211353316 0 1 1 3 -66 9 69 
17 -1 0.8660254037844387 0 -1.110223024625157e-16 1.732050807568877 0 1 1 3 -69 10 72 
18 -0.4999999999999999 0.8660254037844386 0 0.5000000000000001 1.732050807568877 0 1 1 3 -72 -2 75 
19 -1.665334536937735e-16 0.8660254037844386 0 1 1.732050807568877 0 1 1 3 -75 12 -61 
20 1.5 -0.8660254037844387 0 2.5 0 0 1 1 3 79 13 81 
21 1 -0.8660254037844387 0 2 0 0 1 1 3 -81 14 84 
22 0.4999999999999993 -0.866025403784439 0 1.5 0 0 1 1 3 -84 -6 87 
23 0.4999999999999993 -1.732050807568877 0 1.5 -0.8660254037844387 0 1 1 3 -87 16 90 
24 0.9999999999999996 -1.732050807568878 0 1.999999999999999 -0.8660254037844387 0 1 1 3 -90 17 93 
25 1.5 -1.732050807568878 0 2.5 -0.8660254037844386 0 1 1 3 -93 18 -79 
26 1.5 0.8660254037844384 0 2.5 1.732050807568877 0 1 1 3 97 19 99 
27 1 0.8660254037844384 0 2 1.732050807568877 0 1 1 3 -99 20 102 
28 0.5000000000000001 0.8660254037844384 0 1.5 1.732050807568877 0 1 1 3 -102 -12 105 
29 0.5000000000000001 0 0 1.5 0.8660254037844386 0 1 1 3 -105 -1 108 
30 1 0 0 2 0.8660254037844384 0 1 1 3 -108 -14 111 
31 1.5 0 0 2.5 0.8660254037844386 0 1 1 3 -111 24 -97 
32 1.5 2.598076211353316 0 2.5 3.464101615137754 0 1 1 3 115 25 117 
33 1 2.598076211353316 0 2 3.464101615137755 0 1 1 3 -117 26 120 
34 0.5000000000000001 2.598076211353316 0 1.5 3.464101615137755 0 1 1 3 -120 27 123 
35 0.5000000000000001 1.732050807568877 0 1.5 2.598076211353316 0 1 1 3 -123 -7 126 
36 1 1.732050807568877 0 2 2.598076211353316 0 1 1 3 -126 -20 129 
37 1.5 1.732050807568877 0 2.5 2.598076211353316 0 1 1 3 -129 30 -115 
38 3 0 0 4 0.8660254037844386 0 1 1 3 133 31 135 
39 2.5 0 0 3.5 0.8660254037844386 0 1 1 3 -135 32 138 
40 2 0 0 3 0.8660254037844386 0 1 1 3 -138 -24 141 
41 2 -0.8660254037844386 0 3 0 0 1 1 3 -141 -13 144 
42 2.5 -0.866025403784439 0 3.499999999999999 0 0 1 1 3 -144 35 147 
43 3 -0.866025403784439 0 4 0 0 1 1 3 -147 36 -133 
44 3 1.732050807568877 0 4 2.598076211353316 0 1 1 3 151 37 153 
45 2.5 1.732050807568877 0 3.5 2.598076211353316 0 1 1 3 -153 38 156 
46 2 1.732050807568877 0 3 2.598076211353316 0 1 1 3 -156 -30 159 
47 2 0.8660254037844386 0 3 1.732050807568877 0 1 1 3 -159 -19 162 
48 2.5 0.8660254037844386 0 3.5 1.732050807568877 0 1 1 3 -162 -32 165 
49 3 0.8660254037844386 0 4 1.732050807568877 0 1 1 3 -165 42 -151 
$EndEntities
$Nodes
103 31 1 31
0 1 0 1
1
1 0 0
0 2 0 1
2
0.5000000000000001 0.8660254037844386 0
0 3 0 1
3
-0.4999999999999998 0.8660254037844387 0
0 4 0 1
4
-1 1.224646799147353e-16 0
0 5 0 1
5
-0.5000000000000004 -0.8660254037844384 0
0 6 0 1
6
0.4999999999999993 -0.866025403784439 0
0 7 0 1
7
1 1.732050807568877 0
0 8 0 1
8
0.5000000000000001 2.598076211353316 0
0 9 0 1
9
-0.4999999999999998 2.598076211353316 0
0 10 0 1
10
-1 1.732050807568877 0
0 13 0 1
11
2.5 -0.8660254037844386 0
0 14 0 1
12
2 0 0
0 17 0 1
13
0.9999999999999996 -1.732050807568877 0
0 18 0 1
14
1.999999999999999 -1.732050807568878 0
0 19 0 1
15
2.5 0.8660254037844386 0
0 20 0 1
16
2 1.732050807568877 0
0 25 0 1
17
2.5 2.598076211353316 0
0 26 0 1
18
2 3.464101615137754 0
0 27 0 1
19
1 3.464101615137755 0
0 31 0 1
20
4 0 0
0 32 0 1
21
3.5 0.8660254037844386 0
0 36 0 1
22
3.499999999999999 -0.866025403784439 0
0 37 0 1
23
4 1.732050807568877 0
0 38 0 1
24
3.5 2.598076211353316 0
0 43 0 1
25
-1.480297366166875e-16 0 0
0 44 0 1
26
-1.480297366166875e-16 1.732050807568877 0
0 45 0 1
27
1.5 -0.8660254037844387 0
0 46 0 1
28
1.5 0.8660254037844384 0
0 47 0 1
29
1.5 2.598076211353316 0
0 48 0 1
30
3 0 0
0 49 0 1
31
3 1.732050807568877 0
1 1 0 0
1 2 0 0
1 3 0 0
1 4 0 0
1 5 0 0
1 6 0 0
1 7 0 0
1 8 0 0
1 9 0 0
1 10 0 0
1 12 0 0
1 13 0 0
1 14 0 0
1 16 0 0
1 17 0 0
1 18 0 0
1 19 0 0
1 20 0 0
1 24 0 0
1 25 0 0
1 26 0 0
1 27 0 0
1 30 0 0
1 31 0 0
1 32 0 0
1 35 0 0
1 36 0 0
1 37 0 0
1 38 0 0
1 42 0 0
2 8 0 0
2 9 0 0
2 10 0 0
2 11 0 0
2 12 0 0
2 13 0 0
2 14 0 0
2 15 0 0
2 16 0 0
2 17 0 0
2 18 0 0
2 19 0 0
2 20 0 0
2 21 0 0
2 22 0 0
2 23 0 0
2 24 0 0
2 25 0 0
2 26 0 0
2 27 0 0
2 28 0 0
2 29 0 0
2 30 0 0
2 31 0 0
2 32 0 0
2 33 0 0
2 34 0 0
2 35 0 0
2 36 0 0
2 37 0 0
2 38 0 0
2 39 0 0
2 40 0 0
2 41 0 0
2 42 0 0
2 43 0 0
2 44 0 0
2 45 0 0
2 46 0 0
2 47 0 0
2 48 0 0
2 49 0 0
$EndNodes
$Elements
72 72 1 72
1 1 1 1
1 1 2 
1 2 1 1
2 2 3 
1 3 1 1
3 3 4 
1 4 1 1
4 4 5 
1 5 1 1
5 5 6 
1 6 1 1
6 6 1 
1 7 1 1
7 7 8 
1 8 1 1
8 8 9 
1 9 1 1
9 9 10 
1 10 1 1
10 10 3 
1 12 1 1
11 2 7 
1 13 1 1
12 11 12 
1 14 1 1
13 12 1 
1 16 1 1
14 6 13 
1 17 1 1
15 13 14 
1 18 1 1
16 14 11 
1 19 1 1
17 15 16 
1 20 1 1
18 16 7 
1 24 1 1
19 12 15 
1 25 1 1
20 17 18 
1 26 1 1
21 18 19 
1 27 1 1
22 19 8 
1 30 1 1
23 16 17 
1 31 1 1
24 20 21 
1 32 1 1
25 21 15 
1 35 1 1
26 11 22 
1 36 1 1
27 22 20 
1 37 1 1
28 23 24 
1 38 1 1
29 24 17 
1 42 1 1
30 21 23 
2 8 2 1
31 1 2 25 
2 9 2 1
32 2 3 25 
2 10 2 1
33 3 4 25 
2 11 2 1
34 4 5 25 
2 12 2 1
35 5 6 25 
2 13 2 1
36 1 25 6 
2 14 2 1
37 7 8 26 
2 15 2 1
38 8 9 26 
2 16 2 1
39 9 10 26 
2 17 2 1
40 3 26 10 
2 18 2 1
41 2 26 3 
2 19 2 1
42 2 7 26 
2 20 2 1
43 11 12 27 
2 21 2 1
44 1 27 12 
2 22 2 1
45 1 6 27 
2 23 2 1
46 6 13 27 
2 24 2 1
47 13 14 27 
2 25 2 1
48 11 27 14 
2 26 2 1
49 15 16 28 
2 27 2 1
50 7 28 16 
2 28 2 1
51 2 28 7 
2 29 2 1
52 1 28 2 
2 30 2 1
53 1 12 28 
2 31 2 1
54 12 15 28 
2 32 2 1
55 17 18 29 
2 33 2 1
56 18 19 29 
2 34 2 1
57 8 29 19 
2 35 2 1
58 7 29 8 
2 36 2 1
59 7 16 29 
2 37 2 1
60 16 17 29 
2 38 2 1
61 20 21 30 
2 39 2 1
62 15 30 21 
2 40 2 1
63 12 30 15 
2 41 2 1
64 11 30 12 
2 42 2 1
65 11 22 30 
2 43 2 1
66 20 30 22 
2 44 2 1
67 23 24 31 
2 45 2 1
68 17 31 24 
2 46 2 1
69 16 31 17 
2 47 2 1
70 15 31 16 
2 48 2 1
71 15 21 31 
2 49 2 1
72 21 23 31 
$EndElements
