$MeshFormat
4.1 0 8
$EndMeshFormat
$PhysicalNames
3
1 -2 "lixo"
1 2 "hexagon"
2 1 "domain"
$EndPhysicalNames
$Entities
7 12 6 0
1 1 0 0 0 
2 0.5000000000000001 0.8660254037844386 0 0 
3 -0.4999999999999998 0.8660254037844387 0 0 
4 -1 1.224646799147353e-16 0 0 
5 -0.5000000000000004 -0.8660254037844384 0 0 
6 0.4999999999999993 -0.866025403784439 0 0 
7 -1.480297366166875e-16 0 0 0 
1 0.5000000000000001 0 0 1 0.8660254037844386 0 1 2 2 1 -2 
2 -0.4999999999999999 0.8660254037844386 0 0.5000000000000001 0.8660254037844387 0 1 2 2 2 -3 
3 -1 1.110223024625157e-16 0 -0.4999999999999998 0.8660254037844387 0 1 2 2 3 -4 
4 -1 -0.8660254037844384 0 -0.5000000000000004 1.110223024625157e-16 0 1 2 2 4 -5 
5 -0.5000000000000004 -0.866025403784439 0 0.4999999999999993 -0.8660254037844384 0 1 2 2 5 -6 
6 0.4999999999999993 -0.866025403784439 0 1 0 0 1 2 2 6 -1 
7 -1.665334536937735e-16 0 0 1 0 0 0 2 7 -1 
9 -1.110223024625157e-16 0 0 0.5000000000000001 0.8660254037844386 0 0 2 2 -7 
12 -0.4999999999999998 0 0 -1.665334536937735e-16 0.8660254037844387 0 0 2 3 -7 
15 -1 0 0 -1.110223024625157e-16 1.224646799147353e-16 0 0 2 4 -7 
18 -0.5000000000000004 -0.8660254037844384 0 -1.110223024625157e-16 0 0 0 2 5 -7 
21 -1.665334536937735e-16 -0.866025403784439 0 0.4999999999999993 0 0 0 2 6 -7 
2 -1.665334536937735e-16 0 0 1 0.8660254037844386 0 1 1 3 7 1 9 
3 -0.4999999999999999 0 0 0.5000000000000001 0.8660254037844387 0 1 1 3 -9 2 12 
4 -1 0 0 -1.110223024625157e-16 0.8660254037844387 0 1 1 3 -12 3 15 
5 -1 -0.8660254037844384 0 -1.110223024625157e-16 1.110223024625157e-16 0 1 1 3 -15 4 18 
6 -0.5000000000000004 -0.866025403784439 0 0.4999999999999993 0 0 1 1 3 -18 5 21 
7 -1.110223024625157e-16 -0.866025403784439 0 1 0 0 1 1 3 -21 6 -7 
$EndEntities
$Nodes
19 7 1 7
0 1 0 1
1
1 0 0
0 2 0 1
2
0.5000000000000001 0.8660254037844386 0
0 3 0 1
3
-0.4999999999999998 0.8660254037844387 0
0 4 0 1
4
-1 1.224646799147353e-16 0
0 5 0 1
5
-0.5000000000000004 -0.8660254037844384 0
0 6 0 1
6
0.4999999999999993 -0.866025403784439 0
0 7 0 1
7
-1.480297366166875e-16 0 0
1 1 0 0
1 2 0 0
1 3 0 0
1 4 0 0
1 5 0 0
1 6 0 0
2 2 0 0
2 3 0 0
2 4 0 0
2 5 0 0
2 6 0 0
2 7 0 0
$EndNodes
$Elements
12 12 1 12
1 1 1 1
1 1 2 
1 2 1 1
2 2 3 
1 3 1 1
3 3 4 
1 4 1 1
4 4 5 
1 5 1 1
5 5 6 
1 6 1 1
6 6 1 
2 2 2 1
7 1 2 7 
2 3 2 1
8 2 3 7 
2 4 2 1
9 3 4 7 
2 5 2 1
10 4 5 7 
2 6 2 1
11 5 6 7 
2 7 2 1
12 1 7 6 
$EndElements
